<svg width="512" height="512" viewBox="0 0 512 512" fill="none" xmlns="http://www.w3.org/2000/svg">
<path d="M496 440H472V184H456V440H56V176H96V184H72C67.576 184 64 187.576 64 192V424C64 428.424 67.576 432 72 432H440C444.424 432 448 428.424 448 424V192H432V416H80V200H96V248C96 252.424 99.576 256 104 256H216C220.424 256 224 252.424 224 248V200H296V184H224V176H296V160H224V136C224 131.576 220.424 128 216 128H104C99.576 128 96 131.576 96 136V160H48C43.576 160 40 163.576 40 168V440H16C11.576 440 8 443.576 8 448V480C8 493.232 18.768 504 32 504H480C493.232 504 504 493.232 504 480V448C504 443.576 500.424 440 496 440ZM112 144H208V240H112V144ZM488 480C488 484.416 484.416 488 480 488H32C27.584 488 24 484.416 24 480V456H488V480Z" fill="black"/>
<path d="M304 128H315.728C317.136 132.472 318.928 136.8 321.112 140.952L312.808 149.256C309.68 152.384 309.68 157.44 312.808 160.568L335.432 183.192C338.56 186.32 343.616 186.32 346.744 183.192L355.048 174.888C359.208 177.064 363.536 178.864 368 180.272V192C368 196.424 371.576 200 376 200H408C412.424 200 416 196.424 416 192V180.272C420.472 178.864 424.8 177.072 428.952 174.888L437.256 183.192C440.384 186.32 445.44 186.32 448.568 183.192L471.192 160.568C474.32 157.44 474.32 152.384 471.192 149.256L462.888 140.952C465.064 136.792 466.864 132.464 468.272 128H480C484.424 128 488 124.424 488 120V88C488 83.576 484.424 80 480 80H468.272C466.864 75.528 465.072 71.2 462.888 67.048L471.192 58.744C474.32 55.616 474.32 50.56 471.192 47.432L448.568 24.808C445.44 21.68 440.384 21.68 437.256 24.808L428.952 33.112C424.8 30.928 420.472 29.136 416 27.728V16C416 11.576 412.424 8 408 8H376C371.576 8 368 11.576 368 16V27.728C363.528 29.136 359.2 30.928 355.048 33.112L346.744 24.808C343.616 21.68 338.56 21.68 335.432 24.808L312.808 47.432C309.68 50.56 309.68 55.616 312.808 58.744L321.112 67.048C318.928 71.2 317.136 75.528 315.728 80H304C299.576 80 296 83.576 296 88V120C296 124.424 299.576 128 304 128ZM312 96H321.84C325.576 96 328.808 93.416 329.64 89.776C331.24 82.76 334.008 76.104 337.856 69.984C339.848 66.816 339.384 62.704 336.744 60.064L329.768 53.088L341.08 41.776L348.056 48.752C350.704 51.408 354.824 51.856 357.976 49.864C364.096 46.016 370.752 43.248 377.768 41.648C381.416 40.816 384 37.576 384 33.84V24H400V33.84C400 37.576 402.584 40.808 406.224 41.64C413.24 43.24 419.896 46.008 426.016 49.856C429.176 51.848 433.288 51.4 435.936 48.744L442.912 41.768L454.224 53.08L447.248 60.056C444.608 62.696 444.144 66.816 446.136 69.976C449.984 76.096 452.752 82.752 454.352 89.768C455.184 93.416 458.424 96 462.16 96H472V112H462.16C458.424 112 455.192 114.584 454.36 118.224C452.76 125.24 449.992 131.896 446.144 138.016C444.152 141.184 444.616 145.296 447.256 147.936L454.232 154.912L442.92 166.224L435.944 159.248C433.296 156.6 429.176 156.144 426.024 158.136C419.904 161.984 413.248 164.752 406.232 166.352C402.584 167.184 400 170.424 400 174.16V184H384V174.16C384 170.424 381.416 167.192 377.776 166.36C370.76 164.76 364.104 161.992 357.984 158.144C354.824 156.152 350.712 156.608 348.064 159.256L341.088 166.232L329.776 154.92L336.752 147.944C339.392 145.304 339.856 141.184 337.864 138.024C334.016 131.904 331.248 125.248 329.648 118.232C328.816 114.584 325.576 112 321.84 112H312V96Z" fill="black"/>
<path d="M392 160C422.872 160 448 134.872 448 104C448 73.128 422.872 48 392 48C361.128 48 336 73.128 336 104C336 134.872 361.128 160 392 160ZM392 64C414.056 64 432 81.944 432 104C432 126.056 414.056 144 392 144C369.944 144 352 126.056 352 104C352 81.944 369.944 64 392 64Z" fill="black"/>
<path d="M424 280V264H415.36C414 254.536 410.272 245.848 404.784 238.528L410.912 232.4L399.6 221.088L393.472 227.216C386.152 221.728 377.464 218 368 216.64V208H352V216.64C342.536 218 333.848 221.728 326.528 227.216L320.4 221.088L309.088 232.4L315.216 238.528C309.728 245.848 306 254.536 304.64 264H296V280H304.64C306 289.464 309.728 298.152 315.216 305.472L309.088 311.6L320.4 322.912L326.528 316.784C333.848 322.272 342.536 325.992 352 327.36V336H368V327.36C377.464 326 386.152 322.272 393.472 316.784L399.6 322.912L410.912 311.6L404.784 305.472C410.272 298.152 413.992 289.464 415.36 280H424ZM400 272C400 294.056 382.056 312 360 312C337.944 312 320 294.056 320 272C320 249.944 337.944 232 360 232C382.056 232 400 249.944 400 272Z" fill="black"/>
<path d="M360 240C342.352 240 328 254.352 328 272C328 289.648 342.352 304 360 304C377.648 304 392 289.648 392 272C392 254.352 377.648 240 360 240ZM360 288C351.176 288 344 280.824 344 272C344 263.176 351.176 256 360 256C368.824 256 376 263.176 376 272C376 280.824 368.824 288 360 288Z" fill="black"/>
<path d="M216 272H104C99.576 272 96 275.576 96 280V392C96 396.424 99.576 400 104 400H216C220.424 400 224 396.424 224 392V280C224 275.576 220.424 272 216 272ZM208 384H112V288H208V384Z" fill="black"/>
<path d="M151.402 209.864L134.402 187.2L121.602 196.8L145.602 228.8C147.122 230.824 149.49 232 152.002 232C152.114 232 152.226 232 152.338 231.992C154.978 231.88 157.386 230.48 158.786 228.24L198.786 164.24L185.226 155.752L151.402 209.864Z" fill="black"/>
<path d="M133.656 373.656L160 347.312L186.344 373.656L197.656 362.344L171.312 336L197.656 309.656L186.344 298.344L160 324.688L133.656 298.344L122.344 309.656L148.688 336L122.344 362.344L133.656 373.656Z" fill="black"/>
</svg>
