<svg width="20" height="20" viewBox="0 0 20 20" fill="none" xmlns="http://www.w3.org/2000/svg">
<path d="M19.9464 4.93777L19.9464 4.93799C19.9464 4.93786 19.9464 4.93831 19.9465 4.93942C19.9466 4.94088 19.9468 4.94349 19.947 4.94745L19.9483 4.96948L19.9495 4.99132C19.9499 4.99858 19.95 5.00091 19.95 4.99999V15.625C19.95 15.8601 19.8069 16.0716 19.5885 16.1588L19.6071 16.2053L19.5885 16.1588L10.2135 19.9089L10.2135 19.9089C10.145 19.9363 10.0725 19.95 10 19.95C9.92752 19.95 9.855 19.9363 9.78646 19.9089L0.41146 16.1588L0.392891 16.2053L0.411454 16.1588C0.193141 16.0716 0.05 15.8601 0.05 15.625V4.99999C0.05 5.0005 0.0500276 4.99993 0.0501219 4.99799C0.050192 4.99655 0.0502992 4.99435 0.0504593 4.99127L0.0516452 4.96944L0.0529236 4.94741C0.053161 4.9435 0.0533315 4.94091 0.0534284 4.93944C0.0535106 4.93819 0.0535398 4.93774 0.0535121 4.93799L0.0535351 4.93778C0.0750651 4.7398 0.198067 4.5647 0.381812 4.47893L9.7568 0.103934C9.91094 0.0320219 10.089 0.0320219 10.2431 0.103932L19.6181 4.47893C19.8019 4.5647 19.9249 4.73984 19.9464 4.93777ZM10.0211 1.26937L10 1.2595L9.97886 1.26937L6.82757 2.74L6.72581 2.78748L6.82918 2.83133L14.7785 6.20368L14.7975 6.21173L14.8166 6.20407L17.8211 5.00228L17.9283 4.95938L17.8236 4.91054L10.0211 1.26937ZM5.34414 3.45053L5.32364 3.44183L5.30347 3.45125L2.17636 4.91054L2.0717 4.95938L2.17893 5.00228L9.98143 8.12325L10 8.13068L10.0186 8.12325L13.1692 6.86302L13.2819 6.81796L13.1702 6.77057L5.34414 3.45053ZM1.26857 5.87669L1.2 5.84927V5.92312V15.2018V15.2357L1.23143 15.2483L9.35643 18.4983L9.425 18.5257V18.4518V9.17312V9.13927L9.39357 9.1267L1.26857 5.87669ZM10.575 18.4519V18.5257L10.6436 18.4983L18.7686 15.2483L18.8 15.2357V15.2018V5.92312V5.84927L18.7314 5.87669L10.6064 9.1267L10.575 9.13927V9.17312V18.4519Z" fill="black" stroke="#F2F8FF" stroke-width="0.1"/>
</svg>
