<svg width="20" height="20" viewBox="0 0 20 20" fill="none" xmlns="http://www.w3.org/2000/svg">
<path d="M10.7064 4.71188L10.7064 4.71208C10.6557 4.8264 10.5422 4.9 10.4173 4.9H9.58398C9.49297 4.9 9.40599 4.86053 9.34546 4.7917C9.34542 4.79166 9.34539 4.79162 9.34535 4.79158L7.57587 2.76954L7.40062 2.56927V2.83539V12.9167C7.40062 13.0918 7.25902 13.2334 7.08394 13.2334H6.25062C6.07553 13.2334 5.93394 13.0918 5.93394 12.9167V2.83539V2.56927L5.75868 2.76954L3.98919 4.7916C3.98917 4.79162 3.98915 4.79164 3.98912 4.79167C3.92865 4.8605 3.84165 4.9 3.75062 4.9H2.9173C2.79234 4.9 2.6789 4.82639 2.62825 4.7121L2.62809 4.71173C2.60952 4.67029 2.60062 4.62725 2.60062 4.58336C2.60062 4.50653 2.62853 4.43043 2.68194 4.37116L2.68198 4.37112L6.43173 0.204709C6.43178 0.204661 6.43182 0.204613 6.43186 0.204565C6.49201 0.138309 6.57782 0.1 6.6673 0.1C6.7568 0.1 6.84263 0.138328 6.90278 0.204615C6.90281 0.204646 6.90283 0.204677 6.90286 0.204709L10.6526 4.37112L10.6531 4.37167C10.7372 4.46369 10.7578 4.59682 10.7064 4.71188Z" fill="black" stroke="#F2F8FF" stroke-width="0.2"/>
<path d="M17.3724 15.2875L17.3723 15.2873C17.3217 15.173 17.2082 15.0994 17.0833 15.0994H16.25C16.1589 15.0994 16.072 15.1388 16.0115 15.2076L17.3724 15.2875ZM17.3724 15.2875C17.4232 15.4014 17.4023 15.5357 17.3188 15.6281L17.3186 15.6283L13.5689 19.7947C13.5689 19.7947 13.5688 19.7947 13.5688 19.7948C13.5086 19.861 13.4228 19.8994 13.3333 19.8994C13.2438 19.8994 13.1581 19.8611 13.0979 19.7948C13.0979 19.7948 13.0978 19.7947 13.0977 19.7947L9.34799 15.6283L9.34796 15.6282C9.29455 15.5689 9.26663 15.4928 9.26663 15.416C9.26663 15.3721 9.27553 15.3291 9.29411 15.2876L9.29426 15.2873C9.34495 15.173 9.4584 15.0994 9.58331 15.0994H10.4166C10.5077 15.0994 10.5946 15.1389 10.6551 15.2077C10.6551 15.2077 10.6552 15.2077 10.6552 15.2078L12.4247 17.2298L12.6 17.4301V17.164V7.08269C12.6 6.90761 12.7416 6.76602 12.9166 6.76602H13.75C13.925 6.76602 14.0666 6.90761 14.0666 7.08269V17.164V17.4301L14.2419 17.2298L16.0114 15.2078L17.3724 15.2875Z" fill="black" stroke="#F2F8FF" stroke-width="0.2"/>
</svg>
