<svg width="512" height="512" viewBox="0 0 512 512" fill="none" xmlns="http://www.w3.org/2000/svg">
<path d="M112 456H104V376C104 373.878 103.157 371.844 101.657 370.343C100.157 368.843 98.1217 368 96 368H88V248H232C233.286 247.999 234.553 247.689 235.694 247.094C236.835 246.499 237.815 245.638 238.552 244.584L294.552 164.584C295.492 163.24 295.996 161.64 295.996 160C295.996 158.36 295.492 156.76 294.552 155.416L238.552 75.4161C237.815 74.3619 236.835 73.501 235.694 72.9063C234.553 72.3117 233.286 72.0008 232 72.0001H95.792C101.086 65.117 103.971 56.6838 104 48.0001C104.035 41.1731 102.323 34.4508 99.0255 28.4728C95.7281 22.4949 90.9556 17.4604 85.1622 13.8487C79.3688 10.2369 72.7474 8.168 65.9283 7.83897C59.1092 7.50994 52.3194 8.93172 46.2052 11.969C40.091 15.0062 34.8559 19.5578 30.9983 25.1905C27.1407 30.8231 24.7889 37.3494 24.1669 44.1481C23.5449 50.9467 24.6733 57.7914 27.4448 64.0306C30.2162 70.2698 34.5384 75.6958 40 79.7921V368H32C29.8783 368 27.8434 368.843 26.3431 370.343C24.8429 371.844 24 373.878 24 376V456H16C13.8783 456 11.8434 456.843 10.3431 458.343C8.84285 459.844 8 461.878 8 464V496C8 498.122 8.84285 500.157 10.3431 501.657C11.8434 503.157 13.8783 504 16 504H112C114.122 504 116.157 503.157 117.657 501.657C119.157 500.157 120 498.122 120 496V464C120 461.878 119.157 459.844 117.657 458.343C116.157 456.843 114.122 456 112 456ZM278.232 160L227.832 232H88V88.0001H227.832L278.232 160ZM64 24.0001C68.7467 24.0001 73.3869 25.4077 77.3337 28.0448C81.2805 30.682 84.3566 34.4303 86.1731 38.8157C87.9896 43.2011 88.4649 48.0267 87.5388 52.6823C86.6128 57.3378 84.327 61.6142 80.9706 64.9706C77.6141 68.3271 73.3377 70.6129 68.6822 71.5389C64.0266 72.465 59.201 71.9897 54.8156 70.1732C50.4302 68.3567 46.6819 65.2806 44.0447 61.3338C41.4076 57.387 40 52.7468 40 48.0001C40 41.6349 42.5286 35.5304 47.0294 31.0295C51.5303 26.5286 57.6348 24.0001 64 24.0001ZM56 87.2001C61.2789 88.2776 66.7211 88.2776 72 87.2001V368H56V87.2001ZM40 384H88V456H40V384ZM104 488H24V472H104V488Z" fill="black"/>
<path d="M120 128H104V200H120V128Z" fill="black"/>
<path d="M152 176H160C166.365 176 172.47 173.471 176.971 168.971C181.471 164.47 184 158.365 184 152C184 145.635 181.471 139.53 176.971 135.029C172.47 130.529 166.365 128 160 128H144C141.878 128 139.843 128.843 138.343 130.343C136.843 131.843 136 133.878 136 136V200H152V176ZM152 144H160C162.122 144 164.157 144.843 165.657 146.343C167.157 147.843 168 149.878 168 152C168 154.122 167.157 156.157 165.657 157.657C164.157 159.157 162.122 160 160 160H152V144Z" fill="black"/>
<path d="M216 200C222.365 200 228.47 197.471 232.971 192.971C237.471 188.47 240 182.365 240 176V152C240 145.635 237.471 139.53 232.971 135.029C228.47 130.529 222.365 128 216 128C209.635 128 203.53 130.529 199.029 135.029C194.529 139.53 192 145.635 192 152V176C192 182.365 194.529 188.47 199.029 192.971C203.53 197.471 209.635 200 216 200ZM208 152C208 149.878 208.843 147.843 210.343 146.343C211.843 144.843 213.878 144 216 144C218.122 144 220.157 144.843 221.657 146.343C223.157 147.843 224 149.878 224 152V176C224 178.122 223.157 180.157 221.657 181.657C220.157 183.157 218.122 184 216 184C213.878 184 211.843 183.157 210.343 181.657C208.843 180.157 208 178.122 208 176V152Z" fill="black"/>
<path d="M480 488V320C480 317.878 479.157 315.843 477.657 314.343C476.157 312.843 474.122 312 472 312H424C421.878 312 419.843 312.843 418.343 314.343C416.843 315.843 416 317.878 416 320V488H400V352C400 349.878 399.157 347.843 397.657 346.343C396.157 344.843 394.122 344 392 344H344C341.878 344 339.843 344.843 338.343 346.343C336.843 347.843 336 349.878 336 352V488H320V384C320 381.878 319.157 379.843 317.657 378.343C316.157 376.843 314.122 376 312 376H264C261.878 376 259.843 376.843 258.343 378.343C256.843 379.843 256 381.878 256 384V488H240V416C240 413.878 239.157 411.843 237.657 410.343C236.157 408.843 234.122 408 232 408H184C181.878 408 179.843 408.843 178.343 410.343C176.843 411.843 176 413.878 176 416V488H160V504H496V488H480ZM432 328H464V488H432V328ZM352 360H384V488H352V360ZM272 392H304V488H272V392ZM192 424H224V488H192V424Z" fill="black"/>
<path d="M372.16 239.472C333.697 270.057 284.948 284.684 236 280.328L232.712 280C231.603 279.901 230.486 280.034 229.432 280.392C228.377 280.749 227.409 281.323 226.589 282.076C225.769 282.829 225.115 283.745 224.669 284.765C224.224 285.785 223.996 286.887 224 288V344C224 346.122 224.843 348.157 226.343 349.657C227.843 351.157 229.878 352 232 352H232.608L234.464 351.856C298.724 346.813 358.402 316.629 400.544 267.856L418.344 285.656C419.463 286.774 420.888 287.536 422.44 287.845C423.991 288.153 425.6 287.995 427.061 287.389C428.523 286.784 429.772 285.759 430.651 284.444C431.53 283.128 432 281.582 432 280V216C432 213.878 431.157 211.843 429.657 210.343C428.157 208.843 426.122 208 424 208H360C358.418 208 356.872 208.47 355.556 209.349C354.241 210.228 353.216 211.477 352.611 212.939C352.005 214.4 351.847 216.009 352.155 217.56C352.464 219.112 353.226 220.537 354.344 221.656L372.16 239.472ZM416 224V260.688L405.656 250.344C404.861 249.548 403.906 248.929 402.856 248.527C401.805 248.125 400.681 247.949 399.557 248.011C398.434 248.073 397.336 248.371 396.336 248.886C395.336 249.401 394.455 250.122 393.752 251C374.924 274.465 351.652 293.985 325.269 308.443C298.885 322.901 269.91 332.012 240 335.256V296.688C294.478 300.044 348.092 281.847 389.272 246.024C390.097 245.302 390.764 244.419 391.233 243.429C391.702 242.438 391.962 241.362 391.998 240.267C392.034 239.172 391.845 238.081 391.442 237.062C391.039 236.044 390.431 235.118 389.656 234.344L379.312 224H416Z" fill="black"/>
</svg>
