<svg width="20" height="20" viewBox="0 0 20 20" fill="none" xmlns="http://www.w3.org/2000/svg">
<g clip-path="url(#clip0_9705_26226)">
<path d="M9.9987 5.0026C13.157 5.0026 15.9737 6.7776 17.3487 9.58594C15.9737 12.3943 13.157 14.1693 9.9987 14.1693C6.84036 14.1693 4.0237 12.3943 2.6487 9.58594C4.0237 6.7776 6.84036 5.0026 9.9987 5.0026ZM9.9987 3.33594C5.83203 3.33594 2.2737 5.9276 0.832031 9.58594C2.2737 13.2443 5.83203 15.8359 9.9987 15.8359C14.1654 15.8359 17.7237 13.2443 19.1654 9.58594C17.7237 5.9276 14.1654 3.33594 9.9987 3.33594ZM9.9987 7.5026C11.1487 7.5026 12.082 8.43594 12.082 9.58594C12.082 10.7359 11.1487 11.6693 9.9987 11.6693C8.8487 11.6693 7.91536 10.7359 7.91536 9.58594C7.91536 8.43594 8.8487 7.5026 9.9987 7.5026ZM9.9987 5.83594C7.93203 5.83594 6.2487 7.51927 6.2487 9.58594C6.2487 11.6526 7.93203 13.3359 9.9987 13.3359C12.0654 13.3359 13.7487 11.6526 13.7487 9.58594C13.7487 7.51927 12.0654 5.83594 9.9987 5.83594Z" fill="#222222"/>
</g>
<defs>
<clipPath id="clip0_9705_26226">
<rect width="20" height="20" fill="white"/>
</clipPath>
</defs>
</svg>
