<svg width="512" height="512" viewBox="0 0 512 512" fill="none" xmlns="http://www.w3.org/2000/svg">
<path d="M437.02 74.98C388.667 26.629 324.38 0 256 0C187.62 0 123.333 26.629 74.98 74.98C26.629 123.333 0 187.62 0 256C0 324.38 26.629 388.667 74.98 437.02C123.333 485.371 187.62 512 256 512C324.38 512 388.667 485.371 437.02 437.02C485.371 388.667 512 324.38 512 256C512 187.62 485.371 123.333 437.02 74.98ZM444.302 105.57C476.898 146.212 495.275 195.907 496.872 248.5H455.887V200.404C455.887 182.723 441.502 168.339 423.821 168.339H383.663C381.055 154.687 377.866 141.505 374.083 128.929C397.993 122.98 421.431 115.186 444.302 105.57ZM263.502 15.488C290.878 18.945 316.954 41.241 337.616 79.172C339.597 82.809 344.151 84.151 347.79 82.17C351.427 80.189 352.77 75.634 350.789 71.996C339.016 50.384 325.427 33.298 310.652 21.201C354.144 31.237 394.067 53.242 426.413 85.587C429.028 88.202 431.567 90.872 434.046 93.583C412.968 102.192 391.402 109.218 369.423 114.632C368.1 110.838 366.742 107.082 365.309 103.415C363.802 99.557 359.451 97.65 355.594 99.159C351.736 100.666 349.83 105.016 351.338 108.874C352.507 111.865 353.627 114.915 354.72 117.997C324.959 124.311 294.489 127.725 263.502 128.194V15.488ZM263.5 143.198C296.1 142.719 328.148 139.084 359.436 132.334C362.929 143.833 365.929 155.859 368.403 168.339H263.5V143.198ZM248.5 15.478V128.193C217.529 127.714 187.076 124.294 157.331 117.975C165.352 95.38 175.311 75.38 186.719 59.292C205.184 33.25 226.405 18.25 248.5 15.478ZM248.5 143.195V168.339H143.597C146.076 155.875 149.103 143.818 152.61 132.31C183.882 139.064 215.916 142.706 248.5 143.195ZM85.588 85.588C117.92 53.255 157.825 31.254 201.3 21.213C191.854 28.97 182.867 38.791 174.484 50.614C161.824 68.468 151.067 90.08 142.535 114.582C120.586 109.164 99.05 102.141 78 93.536C80.465 90.841 82.989 88.187 85.588 85.588ZM67.738 105.519C90.593 115.136 114.014 122.932 137.905 128.886C134.146 141.415 130.937 154.599 128.317 168.339H88.179C70.498 168.339 56.113 182.723 56.113 200.404V248.5H15.127C16.725 195.885 35.116 146.171 67.738 105.519ZM67.716 406.456C35.109 365.809 16.725 316.104 15.127 263.5H56.112V311.596C56.112 329.277 70.497 343.661 88.178 343.661H128.336C130.945 357.319 134.135 370.509 137.919 383.09C114.015 389.043 90.583 396.838 67.716 406.456ZM248.499 496.512C221.142 493.057 195.08 470.786 174.425 432.901C172.443 429.264 167.887 427.923 164.25 429.906C160.613 431.889 159.272 436.444 161.255 440.081C173.018 461.657 186.593 478.717 201.352 490.8C157.857 480.764 117.933 458.758 85.587 426.413C82.98 423.806 80.449 421.144 77.977 418.441C99.05 409.83 120.61 402.804 142.583 397.386C143.873 401.085 145.196 404.747 146.59 408.324C147.746 411.289 150.579 413.102 153.58 413.102C154.486 413.102 155.407 412.937 156.302 412.588C160.161 411.084 162.071 406.736 160.567 402.877C159.434 399.971 158.347 397.01 157.285 394.018C187.045 387.699 217.513 384.28 248.499 383.806V496.512ZM248.5 368.804C215.902 369.288 183.856 372.927 152.571 379.681C149.075 368.178 146.072 356.146 143.597 343.661H248.5V368.804ZM88.179 328.661C78.769 328.661 71.113 321.006 71.113 311.596V200.404C71.113 190.994 78.769 183.339 88.179 183.339H423.822C433.232 183.339 440.888 190.994 440.888 200.404V311.596H440.887C440.887 321.006 433.231 328.661 423.821 328.661H88.179ZM368.404 343.661C365.926 356.12 362.901 368.171 359.396 379.674C328.121 372.924 296.086 369.288 263.5 368.804V343.661H368.404ZM263.5 496.522V383.806C294.473 384.28 324.928 387.696 354.675 394.01C346.653 416.612 336.692 436.617 325.281 452.709C306.816 478.75 285.595 493.75 263.5 496.522ZM426.413 426.412C394.08 458.745 354.175 480.746 310.7 490.787C320.146 483.03 329.133 473.209 337.517 461.385C350.18 443.527 360.939 421.908 369.472 397.399C391.426 402.815 412.968 409.837 434.023 418.44C431.551 421.143 429.02 423.805 426.413 426.412ZM444.282 406.456C421.423 396.841 397.997 389.047 374.1 383.095C377.857 370.572 381.063 357.394 383.683 343.661H423.821C441.502 343.661 455.887 329.277 455.887 311.596V263.5H496.872C495.275 316.104 476.891 365.809 444.282 406.456Z" fill="black"/>
<path d="M236.46 280.565H195.863V263.5H230.448C234.59 263.5 237.948 260.142 237.948 256C237.948 251.858 234.59 248.5 230.448 248.5H195.863V231.436H236.46C240.602 231.436 243.96 228.078 243.96 223.936C243.96 219.794 240.602 216.436 236.46 216.436H188.363C184.221 216.436 180.863 219.794 180.863 223.936V288.065C180.863 292.207 184.221 295.565 188.363 295.565H236.46C240.602 295.565 243.96 292.207 243.96 288.065C243.96 283.923 240.602 280.565 236.46 280.565Z" fill="black"/>
<path d="M158.304 216.436C154.162 216.436 150.804 219.794 150.804 223.936V265.565L116.207 219.436C114.27 216.853 110.896 215.801 107.835 216.821C104.773 217.842 102.707 220.708 102.707 223.936V288.065C102.707 292.207 106.065 295.565 110.207 295.565C114.349 295.565 117.707 292.207 117.707 288.065V246.436L152.304 292.565C153.748 294.49 155.989 295.565 158.305 295.565C159.096 295.565 159.896 295.44 160.676 295.18C163.738 294.159 165.804 291.293 165.804 288.065V223.936C165.804 219.793 162.446 216.436 158.304 216.436Z" fill="black"/>
<path d="M336.438 216.716C332.451 215.595 328.309 217.917 327.188 221.905L316.372 260.363L305.555 221.905C304.645 218.67 301.695 216.435 298.335 216.435C294.975 216.435 292.025 218.67 291.115 221.905L280.299 260.363L269.483 221.905C268.362 217.917 264.223 215.593 260.233 216.716C256.246 217.837 253.922 221.979 255.044 225.966L273.08 290.095C273.99 293.33 276.94 295.565 280.3 295.565C283.66 295.565 286.61 293.33 287.52 290.095L298.336 251.637L309.153 290.095C310.063 293.33 313.013 295.565 316.373 295.565C319.733 295.565 322.683 293.33 323.593 290.095L341.629 225.966C342.749 221.979 340.426 217.837 336.438 216.716Z" fill="black"/>
<path d="M384.763 248.774C369.243 244.463 366.207 241.546 366.207 237.964C366.207 235.97 372.458 231.436 382.755 231.436C393.051 231.436 399.303 235.97 399.303 237.964C399.303 242.106 402.661 245.464 406.803 245.464C410.945 245.464 414.303 242.106 414.303 237.964C414.303 225.691 400.74 216.436 382.755 216.436C364.77 216.436 351.207 225.691 351.207 237.964C351.207 255.021 368.984 259.959 380.748 263.227C396.268 267.538 399.304 270.455 399.304 274.037C399.304 276.031 393.052 280.565 382.756 280.565C372.46 280.565 366.208 276.031 366.208 274.037C366.208 269.895 362.85 266.537 358.708 266.537C354.566 266.537 351.208 269.895 351.208 274.037C351.208 286.31 364.771 295.565 382.756 295.565C400.741 295.565 414.304 286.31 414.304 274.037C414.304 256.98 396.527 252.042 384.763 248.774Z" fill="black"/>
</svg>
