<svg width="69" height="76" viewBox="0 0 69 76" fill="none" xmlns="http://www.w3.org/2000/svg">
<path d="M34.2305 73.0399C0.359784 58.2458 2.00989 35.392 2.00885 14.3746C14.5856 13.5584 28.7303 6.07645 34.2305 2.4375C50.0518 12.4361 60.4034 13.3544 66.9392 14.3746C65.0951 44.4724 61.5042 61.6128 34.2305 73.0399Z" fill="url(#paint0_linear_7469_12165)"/>
<path fill-rule="evenodd" clip-rule="evenodd" d="M34.1838 0L35.2232 0.656843C49.5212 9.69279 59.1674 11.1238 65.6696 12.0885C66.2025 12.1675 66.7142 12.2434 67.2057 12.3202L69 12.6002L68.8834 14.5032C67.9629 29.5268 66.5989 41.7369 61.8587 51.636C57.0494 61.6795 48.8927 69.1135 34.9373 74.9604L34.192 75.2727L33.4511 74.9491C16.1341 67.3853 7.61896 57.6157 3.56153 46.7965C-0.0682147 37.1178 -0.0290203 26.7826 0.00731449 17.2016C0.0109237 16.2499 0.0145048 15.3056 0.0144586 14.3701L0.0143625 12.4217L1.86434 12.3016C13.953 11.5171 27.7616 4.24892 33.1574 0.679042L34.1838 0ZM34.2226 4.8527C28.327 8.55045 15.7656 14.9603 3.95412 16.2751C3.95333 16.5615 3.95246 16.8479 3.95159 17.1341C3.92198 26.8463 3.89292 36.3794 7.22947 45.2764C10.761 54.6932 18.1825 63.6187 34.2228 70.794C47.0685 65.2718 54.1517 58.5128 58.3371 49.7724C62.4866 41.1068 63.9042 30.2817 64.8279 16.1491C58.3138 15.1802 48.4429 13.622 34.2226 4.8527Z" fill="url(#paint1_linear_7469_12165)"/>
<path d="M23.4385 42.9345C23.2857 42.9345 23.1531 42.8238 23.1185 42.6673L20.181 29.3753C20.1125 29.0655 20.445 28.8314 20.6915 29.0157L28.5032 34.8582C28.6488 34.9671 28.8504 34.9338 28.9571 34.7833L34.0892 27.5452C34.2206 27.3599 34.4847 27.3599 34.616 27.5452L39.7481 34.7833C39.8548 34.9338 40.0564 34.9671 40.202 34.8582L48.0137 29.0157C48.2603 28.8314 48.5927 29.0655 48.5245 29.3753L45.5868 42.6673C45.5524 42.8238 45.4198 42.9345 45.267 42.9345H23.4385ZM45.5278 46.8748C45.5278 47.6628 44.8893 48.1882 43.931 48.1882H24.774C23.8161 48.1882 23.1776 47.6628 23.1776 46.8748V45.9068C23.1776 45.716 23.3246 45.5613 23.5061 45.5613H45.1993C45.3805 45.5613 45.5278 45.716 45.5278 45.9068V46.8748Z" fill="white"/>
<defs>
<linearGradient id="paint0_linear_7469_12165" x1="5.13534" y1="73.0399" x2="63.898" y2="73.0399" gradientUnits="userSpaceOnUse">
<stop stop-color="#FCC030"/>
<stop offset="1" stop-color="#F37335"/>
</linearGradient>
<linearGradient id="paint1_linear_7469_12165" x1="3.33535" y1="75.2727" x2="65.7689" y2="75.2727" gradientUnits="userSpaceOnUse">
<stop stop-color="#F37335"/>
<stop offset="1" stop-color="#FCC030"/>
</linearGradient>
</defs>
</svg>
