<svg width="77" height="79" viewBox="0 0 77 79" fill="none" xmlns="http://www.w3.org/2000/svg">
<g filter="url(#filter0_d_6375_15595)">
<path d="M38.4017 29.1074C24.9025 23.2112 25.5602 14.1028 25.5598 5.72628C30.5722 5.40098 36.2096 2.41906 38.4017 0.96875C44.7073 4.95369 48.833 5.31967 51.4378 5.72628C50.7029 17.7218 49.2717 24.5531 38.4017 29.1074Z" fill="url(#paint0_linear_6375_15595)"/>
<path fill-rule="evenodd" clip-rule="evenodd" d="M38.374 0L38.7882 0.261785C44.4867 3.86307 48.3312 4.43341 50.9227 4.81786C51.135 4.84937 51.339 4.87963 51.5349 4.91021L52.25 5.02183L52.2035 5.78028C51.8367 11.7679 51.293 16.6343 49.4038 20.5796C47.4871 24.5824 44.2362 27.5452 38.6743 29.8755L38.3772 30L38.0819 29.871C31.1802 26.8565 27.7865 22.9628 26.1695 18.6508C24.7228 14.7933 24.7384 10.6742 24.7529 6.85572C24.7544 6.47641 24.7558 6.10006 24.7558 5.72723L24.7557 4.95067L25.493 4.90282C30.311 4.59014 35.8144 1.69341 37.9649 0.270633L38.374 0ZM38.3895 1.93405C36.0398 3.40779 31.0334 5.96246 26.3259 6.48644C26.3256 6.60062 26.3253 6.71474 26.3249 6.8288C26.3131 10.6996 26.3015 14.4991 27.6313 18.0449C29.0388 21.798 31.9967 25.3553 38.3895 28.215C43.5092 26.0141 46.3322 23.3203 48.0003 19.8368C49.6541 16.3832 50.2191 12.0688 50.5872 6.43622C47.991 6.05007 44.057 5.42904 38.3895 1.93405Z" fill="url(#paint1_linear_6375_15595)"/>
<path d="M34.091 17.0951C34.0301 17.0951 33.9772 17.0509 33.9635 16.9885L32.7927 11.691C32.7654 11.5676 32.8979 11.4742 32.9962 11.5477L36.1095 13.8762C36.1675 13.9196 36.2479 13.9064 36.2904 13.8464L38.3358 10.9616C38.3882 10.8878 38.4934 10.8878 38.5458 10.9616L40.5912 13.8464C40.6337 13.9064 40.7141 13.9196 40.7721 13.8762L43.8854 11.5477C43.9837 11.4742 44.1162 11.5676 44.089 11.691L42.9182 16.9885C42.9045 17.0509 42.8516 17.0951 42.7907 17.0951H34.091ZM42.8947 18.6654C42.8947 18.9795 42.6402 19.1889 42.2583 19.1889H34.6232C34.2415 19.1889 33.987 18.9795 33.987 18.6654V18.2796C33.987 18.2036 34.0456 18.142 34.1179 18.142H42.7638C42.836 18.142 42.8947 18.2036 42.8947 18.2796V18.6654Z" fill="white"/>
</g>
<defs>
<filter id="filter0_d_6375_15595" x="0.6684" y="0" width="75.6632" height="78.1632" filterUnits="userSpaceOnUse" color-interpolation-filters="sRGB">
<feFlood flood-opacity="0" result="BackgroundImageFix"/>
<feColorMatrix in="SourceAlpha" type="matrix" values="0 0 0 0 0 0 0 0 0 0 0 0 0 0 0 0 0 0 127 0" result="hardAlpha"/>
<feOffset dy="24.0816"/>
<feGaussianBlur stdDeviation="12.0408"/>
<feComposite in2="hardAlpha" operator="out"/>
<feColorMatrix type="matrix" values="0 0 0 0 0 0 0 0 0 0 0 0 0 0 0 0 0 0 0.25 0"/>
<feBlend mode="normal" in2="BackgroundImageFix" result="effect1_dropShadow_6375_15595"/>
<feBlend mode="normal" in="SourceGraphic" in2="effect1_dropShadow_6375_15595" result="shape"/>
</filter>
<linearGradient id="paint0_linear_6375_15595" x1="26.8058" y1="29.1074" x2="50.2258" y2="29.1074" gradientUnits="userSpaceOnUse">
<stop stop-color="#FCC030"/>
<stop offset="1" stop-color="#F37335"/>
</linearGradient>
<linearGradient id="paint1_linear_6375_15595" x1="26.0793" y1="30" x2="50.9622" y2="30" gradientUnits="userSpaceOnUse">
<stop stop-color="#F37335"/>
<stop offset="1" stop-color="#FCC030"/>
</linearGradient>
</defs>
</svg>
