<svg width="512" height="512" viewBox="0 0 512 512" fill="none" xmlns="http://www.w3.org/2000/svg">
<path d="M491.963 255.997C504.118 246.869 511.995 232.338 511.995 216V50.0015C511.995 22.4317 489.565 0.00195312 461.995 0.00195312H295.997C279.658 0.00195312 265.127 7.87988 255.997 20.0368C246.868 7.88088 232.337 0.00195312 215.998 0.00195312H49.9995C22.4298 0.00195312 0 22.4317 0 50.0015V216C0 232.339 7.87792 246.87 20.0348 255.999C7.87792 265.129 0 279.661 0 295.999V461.997C0 489.567 22.4298 511.997 49.9995 511.997H215.998C232.338 511.997 246.871 504.117 256 491.959C265.129 504.117 279.661 511.997 296.001 511.997H461.999C489.569 511.997 511.999 489.567 511.999 461.997V295.999C512 279.66 504.12 265.127 491.963 255.997V255.997ZM295.997 20.0018H461.995C478.537 20.0018 491.995 33.4596 491.995 50.0015V216C491.995 232.542 478.537 246 461.995 246H296.002H295.997C279.455 246 265.997 232.542 265.997 216V50.0015C265.997 33.4596 279.455 20.0018 295.997 20.0018ZM256 266.037C253.146 262.236 249.764 258.854 245.963 255.999C249.763 253.145 253.144 249.765 255.997 245.965C258.851 249.766 262.233 253.147 266.034 256.001C262.234 258.855 258.853 262.237 256 266.037V266.037ZM19.9998 216V50.0015C19.9998 33.4596 33.4577 20.0018 49.9995 20.0018H215.998C232.54 20.0018 245.998 33.4596 245.998 50.0015V216C245.998 232.542 232.54 246 215.998 246H49.9995C33.4577 246 19.9998 232.542 19.9998 216ZM245.998 461.997C245.998 478.539 232.54 491.997 215.998 491.997H49.9995C33.4577 491.997 19.9998 478.539 19.9998 461.997V295.999C19.9998 279.457 33.4577 265.999 49.9995 265.999H215.998C232.54 265.999 245.998 279.457 245.998 295.999V461.997ZM492 461.997C492 478.539 478.542 491.997 462 491.997H296.002C279.46 491.997 266.002 478.539 266.002 461.997V295.999C266.002 279.457 279.46 265.999 296.002 265.999H461.995H462C478.542 265.999 492 279.457 492 295.999V461.997Z" fill="black"/>
<path d="M133 329.063C127.477 329.063 123 333.541 123 339.063V419.063C123 424.585 127.477 429.063 133 429.063C138.523 429.063 143 424.585 143 419.063V339.063C143 333.54 138.523 329.063 133 329.063Z" fill="black"/>
<path d="M359.978 177.146C365.977 180.98 372.744 182.928 380.095 182.938H380.152C386.483 182.938 392.428 181.561 397.822 178.845C414.831 170.281 418.401 157.305 418.401 147.929V92.9382C418.401 87.4162 413.924 82.9382 408.401 82.9382C402.878 82.9382 398.401 87.4162 398.401 92.9382V147.929C398.401 151.762 397.314 156.708 388.827 160.982C386.214 162.298 383.376 162.938 380.154 162.938C380.143 162.938 380.132 162.938 380.121 162.938C376.59 162.933 373.523 162.069 370.746 160.293C364.161 156.086 362.812 152.331 362.812 147.986V92.9382C362.812 87.4162 358.335 82.9382 352.812 82.9382C347.29 82.9382 342.812 87.4162 342.812 92.9382V147.987C342.812 160.059 348.589 169.871 359.978 177.146Z" fill="black"/>
<path d="M179.856 160.106C184.944 152.277 187.914 142.951 187.914 132.938C187.914 105.368 165.484 82.9382 137.914 82.9382C110.344 82.9382 87.9141 105.368 87.9141 132.938C87.9141 160.508 110.344 182.938 137.914 182.938C148.254 182.938 157.87 179.783 165.852 174.386L171.152 179.686C173.105 181.638 175.664 182.615 178.223 182.615C180.782 182.615 183.342 181.638 185.294 179.686C189.199 175.781 189.199 169.449 185.294 165.543L179.856 160.106ZM137.914 162.938C121.372 162.938 107.914 149.48 107.914 132.938C107.914 116.396 121.372 102.938 137.914 102.938C154.456 102.938 167.914 116.396 167.914 132.938C167.914 137.395 166.93 141.623 165.179 145.429L159.7 139.95C155.795 136.046 149.463 136.046 145.558 139.95C141.653 143.855 141.653 150.187 145.558 154.093L151.26 159.794C147.238 161.802 142.707 162.938 137.914 162.938Z" fill="black"/>
<path d="M405.685 409.063H370.767L412.821 344.522C414.824 341.448 414.983 337.524 413.235 334.298C411.486 331.072 408.112 329.063 404.443 329.063H353.957C348.434 329.063 343.957 333.541 343.957 339.063C343.957 344.585 348.434 349.063 353.957 349.063H385.992L343.938 413.604C341.935 416.678 341.776 420.602 343.524 423.828C345.273 427.054 348.647 429.063 352.316 429.063H405.685C411.208 429.063 415.685 424.585 415.685 419.063C415.685 413.541 411.208 409.063 405.685 409.063Z" fill="black"/>
</svg>
