<svg width="18" height="17" viewBox="0 0 18 17" fill="none" xmlns="http://www.w3.org/2000/svg">
<path fill-rule="evenodd" clip-rule="evenodd" d="M13.0193 1.90951C13.0066 1.98984 13 2.07226 13 2.15626C13 3.00432 13.6716 3.69182 14.5 3.69182C15.3284 3.69182 16 3.00432 16 2.15626C16 1.30819 15.3284 0.620697 14.5 0.620697C14.1309 0.620697 13.7929 0.757201 13.5315 0.983589L9.6362 0L8.2283 5.76509C6.35539 5.89125 4.67098 6.4719 3.4003 7.34851C3.03952 6.98629 2.54524 6.76294 2 6.76294C0.895431 6.76294 0 7.67959 0 8.81035C0 9.59726 0.433658 10.2805 1.06967 10.6232C1.02372 10.8674 1 11.1166 1 11.3696C1 14.4792 4.58172 17 9 17C13.4183 17 17 14.4792 17 11.3696C17 11.1166 16.9763 10.8674 16.9303 10.6232C17.5663 10.2805 18 9.59726 18 8.81035C18 7.67959 17.1046 6.76294 16 6.76294C15.4548 6.76294 14.9605 6.98629 14.5997 7.34851C13.2153 6.39347 11.3399 5.78973 9.26465 5.74225L10.3638 1.24143L13.0193 1.90951ZM5.5 11.8815C6.32843 11.8815 7 11.194 7 10.3459C7 9.49784 6.32843 8.81035 5.5 8.81035C4.67157 8.81035 4 9.49784 4 10.3459C4 11.194 4.67157 11.8815 5.5 11.8815ZM12.5 11.8815C13.3284 11.8815 14 11.194 14 10.3459C14 9.49784 13.3284 8.81035 12.5 8.81035C11.6716 8.81035 11 9.49784 11 10.3459C11 11.194 11.6716 11.8815 12.5 11.8815ZM5.77735 13.503C5.54759 13.3462 5.23715 13.4097 5.08397 13.6449C4.9308 13.8802 4.99289 14.198 5.22265 14.3548C6.31073 15.0973 7.65537 15.4686 9 15.4686C10.3446 15.4686 11.6893 15.0973 12.7773 14.3548C13.0071 14.198 13.0692 13.8802 12.916 13.6449C12.7628 13.4097 12.4524 13.3462 12.2226 13.503C11.3025 14.1309 10.1513 14.4449 9 14.4449C8.31727 14.4449 7.63453 14.3345 7 14.1137C6.56456 13.9621 6.15181 13.7585 5.77735 13.503Z" fill="white"/>
</svg>
