<svg width="487" height="487" viewBox="0 0 487 487" fill="none" xmlns="http://www.w3.org/2000/svg">
<path d="M249.86 265.783C248.959 265.588 248.034 265.553 247.121 265.69C237.975 264.625 231.075 256.886 231.059 247.681C231.059 243.27 227.483 239.693 223.071 239.693C218.66 239.693 215.083 243.27 215.083 247.681C215.106 263.053 225.388 276.517 240.21 280.586V288.574C240.21 292.985 243.787 296.562 248.198 296.562C252.609 296.562 256.186 292.985 256.186 288.574V281.069C273.294 277.489 284.921 261.555 283.123 244.171C281.321 226.786 266.675 213.575 249.197 213.571C239.18 213.571 231.059 205.45 231.059 195.434C231.059 185.418 239.18 177.297 249.197 177.297C259.213 177.297 267.334 185.418 267.334 195.434C267.334 199.845 270.911 203.422 275.322 203.422C279.733 203.422 283.31 199.845 283.31 195.434C283.287 179.294 271.979 165.373 256.186 162.042V154.771C256.186 150.36 252.609 146.783 248.198 146.783C243.787 146.783 240.21 150.36 240.21 154.771V162.529C223.726 167.031 213.117 183.034 215.387 199.97C217.657 216.906 232.109 229.548 249.197 229.544C259.08 229.544 267.143 237.458 267.322 247.338C267.505 257.218 259.736 265.424 249.86 265.783Z" fill="black"/>
<path d="M133.359 222.172C133.359 286.148 185.22 338.009 249.196 338.009C313.172 338.009 365.033 286.148 365.033 222.172C365.033 158.196 313.172 106.335 249.196 106.335C185.252 106.405 133.433 158.227 133.359 222.172ZM249.196 122.312C304.349 122.312 349.057 167.019 349.057 222.172C349.057 277.325 304.349 322.032 249.196 322.032C194.043 322.032 149.336 277.325 149.336 222.172C149.398 167.046 194.071 122.374 249.196 122.312Z" fill="black"/>
<path d="M404.411 357.702L341.835 387.268C333.196 371.198 316.622 360.971 298.384 360.456L240.617 358.869C231.471 358.607 222.496 356.29 214.363 352.09L208.485 349.043C178.389 333.356 142.516 333.395 112.451 349.145L112.818 335.828C112.939 331.417 109.463 327.743 105.052 327.622L41.708 325.878C37.2965 325.757 33.6261 329.233 33.5052 333.644L29.6788 472.65C29.5579 477.061 33.0333 480.736 37.4447 480.857L100.789 482.6H101.007C105.337 482.6 108.878 479.156 108.995 474.83L109.179 468.18L125.635 459.369C132.094 455.893 139.645 455.066 146.701 457.064L244.97 484.644C245.142 484.695 245.314 484.734 245.489 484.773C252.592 486.259 259.831 487.004 267.086 487C282.454 487.008 297.643 483.696 311.61 477.284C311.953 477.128 312.285 476.944 312.601 476.738L455.082 384.577C458.631 382.279 459.778 377.618 457.699 373.936C447.121 355.167 423.66 348.017 404.411 357.702ZM45.8698 465.106L49.2554 342.069L96.6269 343.372L93.2412 466.413L45.8698 465.106ZM304.414 463.016C287.061 470.848 267.679 473.009 249.027 469.198L151.023 441.688C139.993 438.571 128.186 439.862 118.095 445.288L109.686 449.793L111.936 367.988C138.584 350.264 172.761 348.443 201.141 363.229L207.019 366.276C217.292 371.58 228.623 374.506 240.181 374.841L297.951 376.429C314.177 376.897 327.957 388.45 331.249 404.348L245.2 401.973C240.789 401.852 237.119 405.331 236.994 409.739C236.873 414.15 240.352 417.825 244.76 417.946L339.721 420.559H339.943C344.269 420.555 347.807 417.111 347.924 412.789C348.021 409.318 347.764 405.842 347.152 402.425L411.334 372.099C411.396 372.072 411.459 372.041 411.521 372.009C420.625 367.403 431.632 368.944 439.121 375.875L304.414 463.016Z" fill="black"/>
<path d="M257.183 83.8762V7.98821C257.183 3.57675 253.607 0 249.195 0C244.784 0 241.207 3.57675 241.207 7.98821V83.8762C241.207 88.2876 244.784 91.8644 249.195 91.8644C253.607 91.8644 257.183 88.2876 257.183 83.8762Z" fill="black"/>
<path d="M317.094 83.876V47.9291C317.094 43.5177 313.517 39.9409 309.105 39.9409C304.694 39.9409 301.117 43.5177 301.117 47.9291V83.876C301.117 88.2875 304.694 91.8643 309.105 91.8643C313.517 91.8643 317.094 88.2875 317.094 83.876Z" fill="black"/>
<path d="M197.273 83.876V47.9291C197.273 43.5177 193.697 39.9409 189.285 39.9409C184.874 39.9409 181.297 43.5177 181.297 47.9291V83.876C181.297 88.2875 184.874 91.8643 189.285 91.8643C193.697 91.8643 197.273 88.2875 197.273 83.876Z" fill="black"/>
</svg>
