<svg width="17" height="15" viewBox="0 0 17 15" fill="none" xmlns="http://www.w3.org/2000/svg">
<path d="M16.4046 8.18982L16.4044 8.18999L10.3072 14.1261C10.1904 14.2398 10.0341 14.3035 9.86308 14.3035C9.69196 14.3035 9.5357 14.2397 9.41886 14.1261L16.4046 8.18982ZM16.4046 8.18982C16.5212 8.07646 16.5839 7.92717 16.5836 7.76685L16.5836 7.76532C16.584 7.60631 16.5215 7.45699 16.4046 7.34303C16.4045 7.343 16.4045 7.34298 16.4045 7.34295L10.3073 1.40704C10.1903 1.29308 10.0338 1.2291 9.86321 1.2291C9.69137 1.2291 9.53532 1.29257 9.41897 1.40584L9.41865 1.40615L8.86539 1.94318C8.86531 1.94326 8.86523 1.94334 8.86515 1.94341C8.7481 2.05748 8.68639 2.20344 8.68639 2.36124C8.68639 2.51826 8.74732 2.66143 8.86539 2.77651C8.86542 2.77654 8.86545 2.77656 8.86547 2.77659L12.4623 6.2661L12.9934 6.78142H12.2534H0.912117C0.575961 6.78142 0.3 7.06681 0.3 7.4051V8.16721C0.3 8.48863 0.559057 8.75172 0.912117 8.75172H12.213H12.9501L12.4225 9.26645L8.86549 12.737L8.86517 12.7374C8.75079 12.8486 8.68626 13.004 8.68626 13.1659C8.68626 13.3252 8.74886 13.4738 8.86517 13.5869L8.86528 13.5871L9.41875 14.126L16.4046 8.18982Z" fill="#222222" stroke="white" stroke-width="0.6"/>
</svg>
