<svg width="58" height="62" viewBox="0 0 58 62" fill="none" xmlns="http://www.w3.org/2000/svg">
<g filter="url(#filter0_d_3913_52690)">
<path d="M45.2093 24.5557C45.2093 34.5447 37.4193 42.6622 27.8281 42.6622C18.2368 42.6622 10.4468 34.5447 10.4468 24.5557C10.4468 14.5667 18.2368 6.44922 27.8281 6.44922C37.4427 6.44922 45.2093 14.5667 45.2093 24.5557Z" fill="url(#paint0_linear_3913_52690)"/>
<path d="M30.3719 6L25.1318 6.02339C24.6171 6.02339 24.2194 6.3509 24.0557 6.88895C24.851 6.79537 26.3716 6.91234 26.3716 6.91234C26.3716 7.45039 31.5415 7.4036 31.5415 7.4036C31.5415 6.60823 31.0269 6 30.3719 6Z" fill="url(#paint1_linear_3913_52690)"/>
<path d="M15.4715 14.8468C15.7522 15.1276 21.0391 9.77047 20.6882 9.39617C20.6882 9.39617 18.1617 9.23242 17.7874 9.23242C17.4833 9.23242 17.226 9.34939 17.0155 9.55993L13.3427 13.4432C13.1088 13.6772 13.0386 14.3556 13.0386 14.3556L15.4715 14.8468Z" fill="url(#paint2_linear_3913_52690)"/>
<path d="M13.1347 20.8136C13.1347 20.8136 11.5908 20.6967 10.7954 20.7435C10.2807 20.7669 10 21.4453 10 21.9365L10.0234 27.3872C10.0234 27.8551 10.3275 28.2527 10.7486 28.4633C10.9357 28.5569 13.1815 28.5335 13.1815 28.5335C13.6962 28.5101 13.6494 20.8136 13.1347 20.8136Z" fill="url(#paint3_linear_3913_52690)"/>
<path d="M15.5731 34.4241C15.5731 34.4241 13.1636 34.5644 13.1402 34.892C13.1168 35.2429 13.2337 35.5704 13.4443 35.8043L17.1638 39.6408C17.3744 39.8514 17.6317 39.9683 17.9358 39.9683C18.2867 39.9683 20.5559 40.1321 20.8366 39.8514C20.8132 39.8514 15.8304 34.1434 15.5731 34.4241Z" fill="url(#paint4_linear_3913_52690)"/>
<path d="M26.5177 42.2821L25.2778 43.1243L30.5179 43.1009C31.1496 43.1009 31.6876 42.4692 31.6876 41.6973L26.5177 42.2821Z" fill="url(#paint5_linear_3913_52690)"/>
<path d="M12.7654 24.585C12.7654 14.9937 19.9238 7.15697 28.977 6.52535C28.9302 6.52535 28.8834 6.50195 28.8367 6.50195C25.1405 6.66571 21.421 8.1161 18.333 10.9233C17.7716 11.438 17.2335 11.9994 16.7189 12.6076C16.4616 12.9117 16.2042 13.2392 15.9703 13.5668C14.824 15.1107 13.7713 17.1459 13.1397 19.3215C12.8824 20.1871 12.7186 21.0526 12.5783 21.9416C12.4613 22.8539 12.4145 23.0645 12.3911 24.6552C12.4145 25.5208 12.4613 26.4565 12.6017 27.3455C12.742 28.2344 12.9292 29.1234 13.1865 29.9655C13.8181 32.0709 14.8474 34.0828 16.0639 35.6969C16.8592 36.7262 17.3973 37.3578 18.4734 38.317C19.5963 39.3229 20.7893 40.1416 21.9356 40.7499C24.0878 41.8961 26.0996 42.4108 28.4156 42.6213C28.439 42.6213 28.6729 42.5979 28.7899 42.5979C19.8068 41.8961 12.7654 34.1061 12.7654 24.585Z" fill="url(#paint6_linear_3913_52690)"/>
<path d="M47.5458 24.5752C47.5458 34.5642 39.7558 42.6817 30.1645 42.6817C20.5732 42.6817 12.7832 34.5642 12.7832 24.5752C12.7832 14.5863 20.5732 6.46875 30.1645 6.46875C39.7558 6.46875 47.5458 14.5863 47.5458 24.5752Z" fill="url(#paint7_linear_3913_52690)"/>
<path d="M39.1068 24.5781C39.1068 29.7246 35.1066 33.9121 30.1472 33.9121C25.2112 33.9121 21.1875 29.7246 21.1875 24.5781C21.1875 19.4316 25.1878 15.2441 30.1472 15.2441C35.1066 15.2441 39.1068 19.4316 39.1068 24.5781Z" fill="#BCBEC0"/>
<path d="M30.23 37.0413C29.8791 37.0413 29.5282 37.0179 29.2007 36.9945L29.2943 35.7312C29.5984 35.7546 29.9259 35.778 30.23 35.778H30.2768C30.6043 35.778 30.9318 35.7546 31.2593 35.7312L31.3763 36.9945C31.002 37.0413 30.6277 37.0413 30.2768 37.0413H30.23ZM27.0251 36.5734C26.3233 36.3629 25.6215 36.1055 24.9665 35.7546L25.5046 34.6083C26.0894 34.9125 26.721 35.1464 27.3526 35.3335L27.0251 36.5734ZM33.5519 36.55L33.2244 35.3335C33.856 35.1464 34.4642 34.8891 35.0491 34.585L35.5871 35.7078C34.9321 36.0587 34.2537 36.3395 33.5519 36.55ZM23.1184 34.5616C22.5336 34.1171 21.9956 33.579 21.4809 33.041L22.3699 32.1754C22.8143 32.6901 23.3056 33.1346 23.8436 33.5556L23.1184 34.5616ZM37.4352 34.4914L36.6866 33.4855C37.2013 33.0644 37.6925 32.5965 38.137 32.1053L39.0493 32.9474C38.5581 33.5089 38.02 34.0235 37.4352 34.4914ZM20.1475 31.2163C19.7498 30.5613 19.4223 29.8829 19.165 29.1811L20.2878 28.7132C20.5218 29.3448 20.8259 29.9531 21.1768 30.5379L20.1475 31.2163ZM40.3828 31.1227L39.3535 30.4677C39.7044 29.8829 39.9851 29.2747 40.219 28.6196L41.3653 29.0641C41.0846 29.7893 40.7571 30.4677 40.3828 31.1227ZM18.5567 26.9821C18.4164 26.2335 18.3462 25.4615 18.3462 24.7129H19.5626C19.5626 25.3914 19.6328 26.0932 19.7498 26.7482L18.5567 26.9821ZM41.9267 26.8651L40.7337 26.6312C40.8506 25.9762 40.8974 25.2978 40.8974 24.6428V24.5726L42.1139 24.5492V24.6428C42.1373 25.3914 42.0671 26.1399 41.9267 26.8651ZM19.7264 22.6543L18.5333 22.4204C18.6737 21.6718 18.8608 20.9232 19.1182 20.2214L20.2644 20.6659C20.0071 21.3209 19.8434 21.9759 19.7264 22.6543ZM40.7103 22.514C40.5933 21.8356 40.4062 21.1805 40.1488 20.5489L41.2717 20.0811C41.5524 20.7829 41.7396 21.5314 41.8799 22.28L40.7103 22.514ZM21.1066 18.8412L20.0773 18.1862C20.4516 17.5312 20.8961 16.923 21.3873 16.3615L22.2997 17.2037C21.8552 17.6949 21.4575 18.2564 21.1066 18.8412ZM39.2833 18.7242C38.9324 18.1394 38.5347 17.6014 38.0902 17.0867L38.9792 16.2211C39.4704 16.7826 39.9149 17.3908 40.3126 18.0224L39.2833 18.7242ZM23.7501 15.8001L23.0015 14.7942C23.5863 14.3263 24.2179 13.9286 24.8496 13.5777L25.411 14.7006C24.8262 15.0281 24.2647 15.379 23.7501 15.8001ZM36.6164 15.7299C36.0784 15.3322 35.5169 14.9579 34.9321 14.6538L35.4701 13.5075C36.1252 13.835 36.7568 14.2327 37.3416 14.7006L36.6164 15.7299ZM27.2357 13.952L26.8848 12.7355C27.5866 12.525 28.3118 12.3846 29.037 12.3145L29.1539 13.5777C28.5223 13.6479 27.8673 13.7648 27.2357 13.952ZM33.084 13.9286C32.4524 13.7414 31.7974 13.6245 31.1424 13.5777L31.2359 12.3145C31.9611 12.3846 32.6863 12.525 33.3881 12.7121L33.084 13.9286Z" fill="url(#paint8_linear_3913_52690)"/>
<path d="M30.0586 36.8557C29.7077 36.8557 29.3568 36.8323 29.0293 36.8089L29.1229 35.5457C29.427 35.5691 29.7545 35.5925 30.0586 35.5925H30.1054C30.4329 35.5925 30.7604 35.5691 31.0879 35.5457L31.2049 36.8089C30.8306 36.8557 30.4563 36.8557 30.1054 36.8557H30.0586ZM26.8537 36.3878C26.1519 36.1773 25.4501 35.92 24.7951 35.5691L25.3331 34.4228C25.918 34.7269 26.5496 34.9608 27.1812 35.148L26.8537 36.3878ZM33.3571 36.3645L33.0296 35.148C33.6612 34.9608 34.2694 34.7035 34.8542 34.3994L35.3923 35.5223C34.7607 35.8732 34.0589 36.1539 33.3571 36.3645ZM22.9236 34.3994C22.3388 33.9315 21.8007 33.4169 21.2861 32.8788L22.175 32.0133C22.6195 32.5279 23.1108 32.9724 23.6488 33.3935L22.9236 34.3994ZM37.2638 34.3058L36.5152 33.2999C37.0298 32.8788 37.5211 32.411 37.9656 31.9197L38.8779 32.7619C38.3866 33.3233 37.8486 33.8614 37.2638 34.3058ZM19.9761 31.0308C19.5784 30.3757 19.2509 29.6973 18.9935 28.9955L20.1164 28.5277C20.3503 29.1593 20.6545 29.7675 21.0054 30.3524L19.9761 31.0308ZM40.1879 30.9372L39.1586 30.2822C39.5095 29.6973 39.7902 29.0891 40.0242 28.4341L41.1705 28.8786C40.9131 29.6038 40.5856 30.2822 40.1879 30.9372ZM18.3619 26.7966C18.2215 26.048 18.1514 25.276 18.1514 24.5274H19.3678C19.3678 25.2058 19.438 25.9076 19.555 26.5626L18.3619 26.7966ZM41.7553 26.6796L40.5622 26.4457C40.6792 25.7906 40.726 25.1122 40.726 24.4572V24.3636H41.9424V24.4572C41.9424 25.2058 41.8723 25.9544 41.7553 26.6796ZM19.5316 22.4922L18.3385 22.2582C18.4789 21.5097 18.666 20.7611 18.9233 20.0593L20.0696 20.5037C19.8357 21.1354 19.6485 21.8138 19.5316 22.4922ZM40.5388 22.3284C40.4219 21.65 40.2347 20.995 39.9774 20.3634L41.1003 19.8955C41.3576 20.5973 41.5681 21.3459 41.7085 22.0945L40.5388 22.3284ZM20.9352 18.6557L19.9059 18.0006C20.2802 17.3456 20.7246 16.7374 21.2159 16.176L22.1282 17.0181C21.6838 17.5328 21.2861 18.0708 20.9352 18.6557ZM39.0884 18.5387C38.7375 17.9539 38.3399 17.4158 37.8954 16.9012L38.7843 16.0356C39.2756 16.597 39.7201 17.2053 40.1178 17.8603L39.0884 18.5387ZM23.5552 15.6379L22.8067 14.632C23.3915 14.1641 24.0231 13.7664 24.6547 13.4155L25.2162 14.5384C24.6547 14.8425 24.0933 15.2168 23.5552 15.6379ZM36.4216 15.5443C35.8836 15.1467 35.3221 14.7724 34.7373 14.4682L35.2753 13.322C35.9303 13.6495 36.562 14.0472 37.1468 14.515L36.4216 15.5443ZM27.0642 13.7898L26.7133 12.5734C27.4151 12.3628 28.1403 12.2225 28.8655 12.1523L28.9825 13.4155C28.3509 13.4623 27.6959 13.6027 27.0642 13.7898ZM32.9126 13.743C32.281 13.5559 31.626 13.4389 30.9709 13.3921L31.0645 12.1289C31.7897 12.1991 32.5149 12.3394 33.2167 12.5266L32.9126 13.743Z" fill="url(#paint9_linear_3913_52690)"/>
<path d="M30.0586 36.8557C29.7077 36.8557 29.3568 36.8323 29.0293 36.8089L29.1229 35.5457C29.427 35.5691 29.7545 35.5925 30.0586 35.5925H30.1054C30.4329 35.5925 30.7604 35.5691 31.0879 35.5457L31.2049 36.8089C30.8306 36.8557 30.4563 36.8557 30.1054 36.8557H30.0586ZM26.8537 36.3878C26.1519 36.1773 25.4501 35.92 24.7951 35.5691L25.3331 34.4228C25.918 34.7269 26.5496 34.9608 27.1812 35.148L26.8537 36.3878ZM33.3571 36.3645L33.0296 35.148C33.6612 34.9608 34.2694 34.7035 34.8542 34.3994L35.3923 35.5223C34.7607 35.8732 34.0589 36.1539 33.3571 36.3645ZM22.9236 34.3994C22.3388 33.9315 21.8007 33.4169 21.2861 32.8788L22.175 32.0133C22.6195 32.5279 23.1108 32.9724 23.6488 33.3935L22.9236 34.3994ZM37.2638 34.3058L36.5152 33.2999C37.0298 32.8788 37.5211 32.411 37.9656 31.9197L38.8779 32.7619C38.3866 33.3233 37.8486 33.8614 37.2638 34.3058ZM19.9761 31.0308C19.5784 30.3757 19.2509 29.6973 18.9935 28.9955L20.1164 28.5277C20.3503 29.1593 20.6545 29.7675 21.0054 30.3524L19.9761 31.0308ZM40.1879 30.9372L39.1586 30.2822C39.5095 29.6973 39.7902 29.0891 40.0242 28.4341L41.1705 28.8786C40.9131 29.6038 40.5856 30.2822 40.1879 30.9372ZM18.3619 26.7966C18.2215 26.048 18.1514 25.276 18.1514 24.5274H19.3678C19.3678 25.2058 19.438 25.9076 19.555 26.5626L18.3619 26.7966ZM41.7553 26.6796L40.5622 26.4457C40.6792 25.7906 40.726 25.1122 40.726 24.4572V24.3636H41.9424V24.4572C41.9424 25.2058 41.8723 25.9544 41.7553 26.6796ZM19.5316 22.4922L18.3385 22.2582C18.4789 21.5097 18.666 20.7611 18.9233 20.0593L20.0696 20.5037C19.8357 21.1354 19.6485 21.8138 19.5316 22.4922ZM40.5388 22.3284C40.4219 21.65 40.2347 20.995 39.9774 20.3634L41.1003 19.8955C41.3576 20.5973 41.5681 21.3459 41.7085 22.0945L40.5388 22.3284ZM20.9352 18.6557L19.9059 18.0006C20.2802 17.3456 20.7246 16.7374 21.2159 16.176L22.1282 17.0181C21.6838 17.5328 21.2861 18.0708 20.9352 18.6557ZM39.0884 18.5387C38.7375 17.9539 38.3399 17.4158 37.8954 16.9012L38.7843 16.0356C39.2756 16.597 39.7201 17.2053 40.1178 17.8603L39.0884 18.5387ZM23.5552 15.6379L22.8067 14.632C23.3915 14.1641 24.0231 13.7664 24.6547 13.4155L25.2162 14.5384C24.6547 14.8425 24.0933 15.2168 23.5552 15.6379ZM36.4216 15.5443C35.8836 15.1467 35.3221 14.7724 34.7373 14.4682L35.2753 13.322C35.9303 13.6495 36.562 14.0472 37.1468 14.515L36.4216 15.5443ZM27.0642 13.7898L26.7133 12.5734C27.4151 12.3628 28.1403 12.2225 28.8655 12.1523L28.9825 13.4155C28.3509 13.4623 27.6959 13.6027 27.0642 13.7898ZM32.9126 13.743C32.281 13.5559 31.626 13.4389 30.9709 13.3921L31.0645 12.1289C31.7897 12.1991 32.5149 12.3394 33.2167 12.5266L32.9126 13.743Z" fill="url(#paint10_linear_3913_52690)"/>
<path d="M32.6959 6L27.4558 6.02339C26.8242 6.02339 26.2861 6.65501 26.2861 7.427V9.15811C26.2861 9.69615 26.5435 10.164 26.9411 10.398H27.0815C27.9705 10.0237 32.1813 10.0003 33.0702 10.3746H33.2106C33.6083 10.1406 33.8656 9.64937 33.8656 9.11132V7.38021C33.8656 6.63162 33.3509 6 32.6959 6Z" fill="url(#paint11_linear_3913_52690)"/>
<path d="M15.7859 15.2816L16.979 16.498C17.2597 16.7788 17.6106 16.9425 17.9849 16.9425C18.1018 16.9425 18.1954 16.9191 18.289 16.8957L18.3826 16.8022C18.7569 15.8664 21.7044 12.7785 22.5934 12.3808L22.6869 12.2872C22.8039 11.8194 22.6636 11.2813 22.2893 10.907L21.0962 9.69057C20.8155 9.40985 20.4646 9.24609 20.0903 9.24609C19.7862 9.24609 19.5288 9.36306 19.3183 9.5736L15.6689 13.4335C15.435 13.6674 15.3414 13.9949 15.3648 14.3459C15.3882 14.6968 15.552 15.0243 15.7859 15.2816Z" fill="url(#paint12_linear_3913_52690)"/>
<path d="M16.5556 27.8246V27.6842C16.0877 26.7719 16.0643 22.4909 16.5322 21.5785V21.4382C16.2515 21.0405 15.6198 20.7598 14.9648 20.7598H12.7892C11.8301 20.7598 11.0347 21.2978 11.0581 21.9528L11.0815 27.3099C11.0815 27.9649 11.8769 28.503 12.836 28.4796H15.0116C15.6666 28.503 16.2748 28.2456 16.5556 27.8246Z" fill="url(#paint13_linear_3913_52690)"/>
<path d="M22.7055 36.8332C21.8166 36.4356 18.8456 33.371 18.4479 32.4353L18.3544 32.3417C18.2608 32.3183 18.1438 32.2949 18.0269 32.2949C17.676 32.2949 17.3017 32.4587 17.0209 32.7394L15.8513 33.9792C15.594 34.2366 15.4536 34.5641 15.4302 34.915C15.4068 35.2659 15.5238 35.5934 15.7343 35.8273L19.4539 39.6638C19.6644 39.8744 19.9217 39.9913 20.2258 39.9913C20.5767 39.9913 20.951 39.8276 21.2318 39.5469L22.4014 38.307C22.7757 37.9327 22.9161 37.3947 22.7757 36.9268L22.7055 36.8332Z" fill="url(#paint14_linear_3913_52690)"/>
<path d="M33.3536 38.7227H33.2133C32.3243 39.097 28.1135 39.1203 27.2246 38.7461H27.0842C26.6865 38.98 26.4292 39.4712 26.4292 40.0093V41.7404C26.4292 42.5124 26.9672 43.144 27.5989 43.1206L32.839 43.0972C33.4706 43.0972 34.0087 42.4656 34.0087 41.6936V39.9625C34.0087 39.4245 33.7513 38.9566 33.3536 38.7227Z" fill="url(#paint15_linear_3913_52690)"/>
<path d="M43.3399 32.6417C43.0592 32.361 42.7083 32.1973 42.334 32.1973C42.217 32.1973 42.1234 32.2207 42.0065 32.2441L41.9129 32.3376C41.5386 33.2734 38.591 36.3613 37.7021 36.759L37.6085 36.8525C37.4915 37.3204 37.6319 37.8585 38.0062 38.2328L39.1993 39.4492C39.48 39.7299 39.8309 39.8937 40.2052 39.8937C40.5093 39.8937 40.7666 39.7767 40.9772 39.5662L44.6733 35.6829C45.1178 35.215 45.071 34.3728 44.533 33.8348L43.3399 32.6417Z" fill="url(#paint16_linear_3913_52690)"/>
<path d="M47.5549 20.9036C47.2975 20.6697 46.97 20.5527 46.6191 20.5527H44.9582C44.4435 20.5527 43.9757 20.8101 43.7651 21.2311V21.3715C44.116 22.3072 44.1394 26.6818 43.7885 27.6175V27.7579C44.0225 28.179 44.4903 28.4363 45.005 28.4363H46.6659C47.4145 28.4363 47.9993 27.8983 47.9993 27.2198L47.9759 21.7692C47.9526 21.4417 47.8122 21.1376 47.5549 20.9036Z" fill="url(#paint17_linear_3913_52690)"/>
<path d="M37.6143 12.3163C38.5032 12.714 41.4742 15.7785 41.8719 16.7143L41.9655 16.8078C42.059 16.8312 42.176 16.8546 42.293 16.8546C42.6439 16.8546 43.0182 16.6909 43.2989 16.4102L44.4686 15.1703C44.7259 14.913 44.8662 14.5855 44.8896 14.2346C44.913 13.8837 44.7961 13.5562 44.5855 13.3222L40.866 9.48571C40.6554 9.27517 40.3981 9.1582 40.094 9.1582C39.7431 9.1582 39.3688 9.32196 39.0881 9.60268L37.9184 10.8425C37.5441 11.2168 37.4038 11.7549 37.5441 12.2227L37.6143 12.3163Z" fill="url(#paint18_linear_3913_52690)"/>
<path d="M19.7843 13.1587C19.7843 13.5798 19.4568 13.9307 19.0357 13.9307C18.6146 13.9307 18.2871 13.5798 18.2871 13.1587C18.2871 12.7376 18.6146 12.3867 19.0357 12.3867C19.4568 12.3867 19.7843 12.7376 19.7843 13.1587Z" fill="url(#paint19_linear_3913_52690)"/>
<path d="M15.2213 24.5239C15.2213 24.945 14.8938 25.2959 14.4727 25.2959C14.0516 25.2959 13.7241 24.945 13.7241 24.5239C13.7241 24.1029 14.0516 23.752 14.4727 23.752C14.8938 23.752 15.2213 24.1029 15.2213 24.5239Z" fill="url(#paint20_linear_3913_52690)"/>
<path d="M19.7565 36.3384C19.7565 36.7595 19.4289 37.1104 19.0079 37.1104C18.5868 37.1104 18.2593 36.7595 18.2593 36.3384C18.2593 35.9173 18.5868 35.5664 19.0079 35.5664C19.4056 35.5664 19.7565 35.9173 19.7565 36.3384Z" fill="url(#paint21_linear_3913_52690)"/>
<path d="M30.9444 41.0454C30.9444 41.4665 30.6169 41.8174 30.1959 41.8174C29.7748 41.8174 29.4473 41.4665 29.4473 41.0454C29.4473 40.6243 29.7748 40.2734 30.1959 40.2734C30.6169 40.2968 30.9444 40.6243 30.9444 41.0454Z" fill="url(#paint22_linear_3913_52690)"/>
<path d="M42.2213 36.1821C42.2213 36.6032 41.8938 36.9541 41.4727 36.9541C41.075 36.9541 40.7241 36.6032 40.7241 36.1821C40.7241 35.7611 41.0516 35.4102 41.4727 35.4102C41.8938 35.4102 42.2213 35.7611 42.2213 36.1821Z" fill="url(#paint23_linear_3913_52690)"/>
<path d="M46.5963 24.6997C46.5963 25.1208 46.2688 25.4717 45.8477 25.4717C45.4266 25.4717 45.0991 25.1208 45.0991 24.6997C45.0991 24.2786 45.4266 23.9277 45.8477 23.9277C46.2454 23.9277 46.5963 24.2786 46.5963 24.6997Z" fill="url(#paint24_linear_3913_52690)"/>
<path d="M41.9845 12.9497C41.9845 13.3708 41.657 13.7217 41.2359 13.7217C40.8148 13.7217 40.4873 13.3708 40.4873 12.9497C40.4873 12.5286 40.8148 12.1777 41.2359 12.1777C41.657 12.1777 41.9845 12.5286 41.9845 12.9497Z" fill="url(#paint25_linear_3913_52690)"/>
<path d="M30.8732 8.24464C30.8732 8.66572 30.5456 9.01662 30.1246 9.01662C29.7269 9.01662 29.376 8.66572 29.376 8.24464C29.376 7.82356 29.7035 7.47266 30.1246 7.47266C30.5456 7.47266 30.8732 7.82356 30.8732 8.24464Z" fill="url(#paint26_linear_3913_52690)"/>
<path d="M38.3329 24.5737C38.3329 29.2758 34.6601 33.1123 30.1452 33.1123C25.6303 33.1123 21.9575 29.2992 21.9575 24.5737C21.9575 19.8717 25.6303 16.0352 30.1452 16.0352C34.6835 16.0352 38.3329 19.8717 38.3329 24.5737Z" fill="url(#paint27_linear_3913_52690)"/>
</g>
<defs>
<filter id="filter0_d_3913_52690" x="0" y="4" width="57.9995" height="57.125" filterUnits="userSpaceOnUse" color-interpolation-filters="sRGB">
<feFlood flood-opacity="0" result="BackgroundImageFix"/>
<feColorMatrix in="SourceAlpha" type="matrix" values="0 0 0 0 0 0 0 0 0 0 0 0 0 0 0 0 0 0 127 0" result="hardAlpha"/>
<feOffset dy="8"/>
<feGaussianBlur stdDeviation="5"/>
<feComposite in2="hardAlpha" operator="out"/>
<feColorMatrix type="matrix" values="0 0 0 0 0 0 0 0 0 0 0 0 0 0 0 0 0 0 0.25 0"/>
<feBlend mode="normal" in2="BackgroundImageFix" result="effect1_dropShadow_3913_52690"/>
<feBlend mode="normal" in="SourceGraphic" in2="effect1_dropShadow_3913_52690" result="shape"/>
</filter>
<linearGradient id="paint0_linear_3913_52690" x1="19.565" y1="7.41628" x2="35.3011" y2="40.048" gradientUnits="userSpaceOnUse">
<stop stop-color="#93C8FF"/>
<stop offset="0.3602" stop-color="#1C75BC"/>
<stop offset="1" stop-color="#2B3990"/>
</linearGradient>
<linearGradient id="paint1_linear_3913_52690" x1="27.8157" y1="7.50003" x2="27.7669" y2="5.93348" gradientUnits="userSpaceOnUse">
<stop stop-color="#B5B8B9"/>
<stop offset="0.2635" stop-color="#D4D6D6"/>
<stop offset="0.5282" stop-color="#ECECED"/>
<stop offset="0.7749" stop-color="#FAFAFA"/>
<stop offset="0.9839" stop-color="white"/>
</linearGradient>
<linearGradient id="paint2_linear_3913_52690" x1="16.9635" y1="14.8185" x2="16.7906" y2="9.26596" gradientUnits="userSpaceOnUse">
<stop offset="0.00537634" stop-color="#D1D3D4"/>
<stop offset="0.0433094" stop-color="#D4D6D7"/>
<stop offset="0.3891" stop-color="#ECEDED"/>
<stop offset="0.7111" stop-color="#FAFAFA"/>
<stop offset="0.9839" stop-color="white"/>
</linearGradient>
<linearGradient id="paint3_linear_3913_52690" x1="11.872" y1="28.5428" x2="11.6279" y2="20.6994" gradientUnits="userSpaceOnUse">
<stop offset="0.00537634" stop-color="#A7A9AC"/>
<stop offset="0.3573" stop-color="#BEC0C2"/>
<stop offset="0.6965" stop-color="#CCCECF"/>
<stop offset="0.9839" stop-color="#D1D3D4"/>
</linearGradient>
<linearGradient id="paint4_linear_3913_52690" x1="16.0675" y1="38.598" x2="18.3456" y2="35.4831" gradientUnits="userSpaceOnUse">
<stop stop-color="#B5B8B9"/>
<stop offset="0.2852" stop-color="#A6A8AA"/>
<stop offset="0.6632" stop-color="#989A9D"/>
<stop offset="0.9839" stop-color="#939598"/>
</linearGradient>
<linearGradient id="paint5_linear_3913_52690" x1="28.4671" y1="42.7877" x2="28.6313" y2="39.629" gradientUnits="userSpaceOnUse">
<stop stop-color="#808285"/>
<stop offset="0.9731" stop-color="#808285"/>
</linearGradient>
<linearGradient id="paint6_linear_3913_52690" x1="12.3864" y1="24.5792" x2="30.1561" y2="24.5792" gradientUnits="userSpaceOnUse">
<stop stop-color="#D1D3D4"/>
<stop offset="0.1153" stop-color="#C2C3C4"/>
<stop offset="0.3395" stop-color="#999B9B"/>
<stop offset="0.6504" stop-color="#595959"/>
<stop offset="1" stop-color="#080707"/>
</linearGradient>
<linearGradient id="paint7_linear_3913_52690" x1="21.8814" y1="7.43027" x2="37.6175" y2="40.062" gradientUnits="userSpaceOnUse">
<stop stop-color="#00AEEF"/>
<stop offset="0.3602" stop-color="#1C75BC"/>
<stop offset="1" stop-color="#2B3990"/>
</linearGradient>
<linearGradient id="paint8_linear_3913_52690" x1="18.3368" y1="24.7147" x2="42.1283" y2="24.6172" gradientUnits="userSpaceOnUse">
<stop stop-color="#002E92"/>
<stop offset="0.1289" stop-color="#00247D"/>
<stop offset="0.3678" stop-color="#00155C"/>
<stop offset="0.5968" stop-color="#000A44"/>
<stop offset="0.8093" stop-color="#000336"/>
<stop offset="0.9892" stop-color="#000131"/>
</linearGradient>
<linearGradient id="paint9_linear_3913_52690" x1="18.1547" y1="24.5364" x2="41.9458" y2="24.4388" gradientUnits="userSpaceOnUse">
<stop offset="0.0161292" stop-color="white"/>
<stop offset="0.1844" stop-color="#FFFAFA"/>
<stop offset="0.3831" stop-color="#FFECEC"/>
<stop offset="0.5973" stop-color="#FFD4D4"/>
<stop offset="0.8208" stop-color="#FFB3B4"/>
<stop offset="1" stop-color="#FF9394"/>
</linearGradient>
<linearGradient id="paint10_linear_3913_52690" x1="18.1547" y1="24.5364" x2="41.9458" y2="24.4388" gradientUnits="userSpaceOnUse">
<stop offset="0.0107529" stop-color="#E6E7E8"/>
<stop offset="0.2411" stop-color="#E1E2E3"/>
<stop offset="0.5131" stop-color="#D3D4D6"/>
<stop offset="0.8049" stop-color="#BBBDBF"/>
<stop offset="1" stop-color="#A7A9AC"/>
</linearGradient>
<linearGradient id="paint11_linear_3913_52690" x1="30.1594" y1="10.5025" x2="30.0178" y2="5.95399" gradientUnits="userSpaceOnUse">
<stop stop-color="#B5B8B9"/>
<stop offset="0.0718313" stop-color="#BBBEBF"/>
<stop offset="0.4071" stop-color="#D3D5D6"/>
<stop offset="0.7194" stop-color="#E1E2E3"/>
<stop offset="0.9839" stop-color="#E6E7E8"/>
</linearGradient>
<linearGradient id="paint12_linear_3913_52690" x1="19.1712" y1="16.9201" x2="18.9335" y2="9.2801" gradientUnits="userSpaceOnUse">
<stop stop-color="#B5B8B9"/>
<stop offset="0.0718313" stop-color="#BBBEBF"/>
<stop offset="0.4071" stop-color="#D3D5D6"/>
<stop offset="0.7194" stop-color="#E1E2E3"/>
<stop offset="0.9839" stop-color="#E6E7E8"/>
</linearGradient>
<linearGradient id="paint13_linear_3913_52690" x1="13.9757" y1="28.5251" x2="13.7864" y2="20.7636" gradientUnits="userSpaceOnUse">
<stop stop-color="#B5B8B9"/>
<stop offset="0.0730088" stop-color="#BBBEBF"/>
<stop offset="0.4138" stop-color="#D3D5D6"/>
<stop offset="0.7312" stop-color="#E1E2E3"/>
<stop offset="1" stop-color="#E6E7E8"/>
</linearGradient>
<linearGradient id="paint14_linear_3913_52690" x1="17.7739" y1="38.0085" x2="21.3563" y2="33.1105" gradientUnits="userSpaceOnUse">
<stop stop-color="#B5B8B9"/>
<stop offset="0.0718313" stop-color="#BBBEBF"/>
<stop offset="0.4071" stop-color="#D3D5D6"/>
<stop offset="0.7194" stop-color="#E1E2E3"/>
<stop offset="0.9839" stop-color="#E6E7E8"/>
</linearGradient>
<linearGradient id="paint15_linear_3913_52690" x1="30.1658" y1="41.9311" x2="30.6066" y2="33.4496" gradientUnits="userSpaceOnUse">
<stop stop-color="#B5B8B9"/>
<stop offset="0.2635" stop-color="#D4D6D6"/>
<stop offset="0.5282" stop-color="#ECECED"/>
<stop offset="0.7749" stop-color="#FAFAFA"/>
<stop offset="0.9839" stop-color="white"/>
</linearGradient>
<linearGradient id="paint16_linear_3913_52690" x1="42.0273" y1="37.0794" x2="38.2449" y2="31.9728" gradientUnits="userSpaceOnUse">
<stop stop-color="#B5B8B9"/>
<stop offset="0.0714388" stop-color="#BBBEBF"/>
<stop offset="0.4049" stop-color="#D3D5D6"/>
<stop offset="0.7154" stop-color="#E1E2E3"/>
<stop offset="0.9785" stop-color="#E6E7E8"/>
</linearGradient>
<linearGradient id="paint17_linear_3913_52690" x1="46.9689" y1="24.5652" x2="40.9254" y2="24.2841" gradientUnits="userSpaceOnUse">
<stop stop-color="#B5B8B9"/>
<stop offset="0.0722238" stop-color="#BBBEBF"/>
<stop offset="0.4093" stop-color="#D3D5D6"/>
<stop offset="0.7233" stop-color="#E1E2E3"/>
<stop offset="0.9892" stop-color="#E6E7E8"/>
</linearGradient>
<linearGradient id="paint18_linear_3913_52690" x1="41.2949" y1="16.8893" x2="41.0535" y2="9.1326" gradientUnits="userSpaceOnUse">
<stop stop-color="#B5B8B9"/>
<stop offset="0.0718313" stop-color="#BBBEBF"/>
<stop offset="0.4071" stop-color="#D3D5D6"/>
<stop offset="0.7194" stop-color="#E1E2E3"/>
<stop offset="0.9839" stop-color="#E6E7E8"/>
</linearGradient>
<linearGradient id="paint19_linear_3913_52690" x1="18.299" y1="13.1616" x2="19.7805" y2="13.1556" gradientUnits="userSpaceOnUse">
<stop stop-color="#00AEEF"/>
<stop offset="0.3602" stop-color="#1C75BC"/>
<stop offset="1" stop-color="#2B3990"/>
</linearGradient>
<linearGradient id="paint20_linear_3913_52690" x1="13.7458" y1="24.5296" x2="15.2272" y2="24.5235" gradientUnits="userSpaceOnUse">
<stop stop-color="#00AEEF"/>
<stop offset="0.3602" stop-color="#1C75BC"/>
<stop offset="1" stop-color="#2B3990"/>
</linearGradient>
<linearGradient id="paint21_linear_3913_52690" x1="18.266" y1="36.3471" x2="19.7473" y2="36.341" gradientUnits="userSpaceOnUse">
<stop stop-color="#00AEEF"/>
<stop offset="0.3602" stop-color="#1C75BC"/>
<stop offset="1" stop-color="#2B3990"/>
</linearGradient>
<linearGradient id="paint22_linear_3913_52690" x1="29.4651" y1="41.0628" x2="30.9464" y2="41.0567" gradientUnits="userSpaceOnUse">
<stop stop-color="#00AEEF"/>
<stop offset="0.3602" stop-color="#1C75BC"/>
<stop offset="1" stop-color="#2B3990"/>
</linearGradient>
<linearGradient id="paint23_linear_3913_52690" x1="40.7362" y1="36.1949" x2="42.2175" y2="36.1888" gradientUnits="userSpaceOnUse">
<stop stop-color="#00AEEF"/>
<stop offset="0.3602" stop-color="#1C75BC"/>
<stop offset="1" stop-color="#2B3990"/>
</linearGradient>
<linearGradient id="paint24_linear_3913_52690" x1="45.1066" y1="24.7013" x2="46.5878" y2="24.6952" gradientUnits="userSpaceOnUse">
<stop stop-color="#00AEEF"/>
<stop offset="0.3602" stop-color="#1C75BC"/>
<stop offset="1" stop-color="#2B3990"/>
</linearGradient>
<linearGradient id="paint25_linear_3913_52690" x1="40.5033" y1="12.958" x2="41.9848" y2="12.9519" gradientUnits="userSpaceOnUse">
<stop stop-color="#00AEEF"/>
<stop offset="0.3602" stop-color="#1C75BC"/>
<stop offset="1" stop-color="#2B3990"/>
</linearGradient>
<linearGradient id="paint26_linear_3913_52690" x1="29.3874" y1="8.24428" x2="30.8687" y2="8.23821" gradientUnits="userSpaceOnUse">
<stop stop-color="#00AEEF"/>
<stop offset="0.3602" stop-color="#1C75BC"/>
<stop offset="1" stop-color="#2B3990"/>
</linearGradient>
<linearGradient id="paint27_linear_3913_52690" x1="21.9644" y1="24.575" x2="38.3436" y2="24.575" gradientUnits="userSpaceOnUse">
<stop offset="0.0161292" stop-color="#E6E7E8"/>
<stop offset="0.2806" stop-color="#E1E2E3"/>
<stop offset="0.5929" stop-color="#D3D5D6"/>
<stop offset="0.9282" stop-color="#BBBEBF"/>
<stop offset="1" stop-color="#B5B8B9"/>
</linearGradient>
</defs>
</svg>
