<svg width="50" height="61" viewBox="0 0 50 61" fill="none" xmlns="http://www.w3.org/2000/svg">
<g filter="url(#filter0_d_3913_52691)">
<path d="M38.6384 32.047C38.6384 32.047 36.3984 21.4058 27.9632 16.7031H21.9431C13.5079 21.4058 11.2678 32.047 11.2678 32.047C8.8061 44.4271 24.1248 42.8413 24.1248 42.8413H25.7815C25.7815 42.8413 41.1001 44.4161 38.6384 32.047Z" fill="#E8C47B"/>
<path d="M38.638 32.047C38.638 32.047 36.398 21.4058 27.9628 16.7031H24.6144C30.3428 21.4277 31.9529 29.0613 31.9529 29.0613C34.2046 40.3587 20.2159 38.926 20.2159 38.926H18.6992C18.6992 38.926 15.0475 39.2979 11.7808 38.1605C14.5925 43.8256 24.1244 42.8413 24.1244 42.8413H25.7811C25.7811 42.8413 41.0997 44.4161 38.638 32.047Z" fill="#DAB873"/>
<path d="M15.8313 9.78116C15.5163 9.39838 15.0262 8.56721 15.5629 8.18443C16.2629 7.68136 17.628 8.21724 18.3397 8.40316C19.273 8.64377 20.2997 8.86249 21.3147 8.76407C22.3064 8.66564 23.4498 8.15162 24.3365 7.81259C25.2348 7.47356 26.1798 6.86112 27.2415 7.16734C28.3615 7.49544 28.8049 8.4141 30.0999 8.52346C32.375 8.73126 33.7167 6.81738 35.8517 7.01423C36.9601 7.1236 36.8317 7.76885 36.2134 8.21724L27.9649 16.7039H21.9447L15.8313 9.78116Z" fill="#E8C47B"/>
<path d="M22.577 16.7031C22.577 16.7031 19.8003 18.6061 18.9253 20.0497C18.9253 20.0497 22.6354 17.4687 24.6188 16.7031H22.577Z" fill="#DAB873"/>
<path d="M23.4136 16.7031C23.4136 16.7031 25.5486 17.764 26.5986 20.0497C26.5986 20.0497 26.4586 18.1139 25.3503 16.7031H23.4136Z" fill="#DAB873"/>
<path d="M27.6631 21.4844C27.6631 21.4844 29.5415 24.7872 30.5565 28.3962C30.5565 28.3853 30.7782 24.295 27.6631 21.4844Z" fill="#DAB873"/>
<path d="M30.1436 21.9023C30.1436 21.9023 32.0219 25.2052 33.037 28.8142C33.037 28.8142 33.2586 24.724 30.1436 21.9023Z" fill="#E8C47B"/>
<path d="M27.1958 23.1351C27.1958 23.1351 30.3459 22.6539 33.2159 23.3429C33.2159 23.3429 30.3459 21.9431 27.1958 23.1351Z" fill="#E8C47B"/>
<path d="M27.8809 24.722C27.8809 24.722 31.0309 24.2408 33.901 24.9298C33.901 24.9407 31.0309 23.5409 27.8809 24.722Z" fill="#E8C47B"/>
<path d="M27.8745 24.7261C27.8745 24.7261 28.9362 24.5621 30.3829 24.5621C30.3362 24.4637 30.2896 24.3543 30.2429 24.2559C29.5079 24.2887 28.7029 24.4199 27.8745 24.7261Z" fill="#DAB873"/>
<path d="M29.604 22.9742C29.5457 22.8758 29.499 22.7773 29.4407 22.668C28.7407 22.7008 27.9706 22.843 27.189 23.1382C27.189 23.1382 28.204 22.9851 29.604 22.9742Z" fill="#DAB873"/>
<path d="M19.3872 8.64605L23.4123 15.7001V8.17578C23.3306 8.20859 23.2606 8.23046 23.179 8.26327C23.1673 8.26327 23.1556 8.27421 23.1323 8.27421C23.0506 8.30702 22.9806 8.32889 22.899 8.3617H22.8873C22.8056 8.39451 22.7239 8.41638 22.6423 8.44919C22.6306 8.46013 22.6073 8.46013 22.5956 8.46013C22.5373 8.482 22.4673 8.50388 22.4089 8.52575C22.3856 8.53669 22.3623 8.53668 22.3389 8.54762C22.2689 8.56949 22.1873 8.59137 22.1173 8.61324C22.1056 8.61324 22.1056 8.61324 22.0939 8.61324C22.0123 8.63511 21.9423 8.65699 21.8606 8.66792C21.8373 8.66792 21.8139 8.67886 21.8023 8.67886C21.7439 8.6898 21.6856 8.70073 21.6273 8.71167C21.6039 8.71167 21.5806 8.7226 21.5573 8.7226C21.4756 8.73354 21.4056 8.74448 21.3239 8.75541C20.6706 8.83197 20.0172 8.76635 19.3872 8.64605Z" fill="#DAB873"/>
<path d="M18.3391 8.40663C18.2574 8.38476 18.1641 8.36289 18.0591 8.33008L21.3958 13.1203L18.9574 8.55974C18.7474 8.50506 18.5374 8.46132 18.3391 8.40663Z" fill="#DAB873"/>
<path d="M36.2091 8.21825C36.8275 7.76985 36.9558 7.1246 35.8474 7.01523C33.8991 6.82931 32.6157 8.40417 30.679 8.52447L26.2339 16.694H27.9606L36.2091 8.21825Z" fill="#DAB873"/>
<path d="M26.7759 14.6798L30.066 8.51166C29.3893 8.44604 28.9459 8.15075 28.5142 7.85547L26.7759 14.6798Z" fill="#DAB873"/>
<path d="M21.5448 34.2297C17.9513 34.2297 15.0229 31.5503 15.0229 28.2584C15.0229 24.9665 17.9513 22.2871 21.5448 22.2871C25.1382 22.2871 28.0666 24.9665 28.0666 28.2584C28.0666 31.5503 25.1382 34.2297 21.5448 34.2297ZM21.5448 23.0527C18.3947 23.0527 15.8396 25.3821 15.8396 28.2584C15.8396 31.1238 18.3947 33.4642 21.5448 33.4642C24.6948 33.4642 27.2499 31.1347 27.2499 28.2584C27.2382 25.3931 24.6832 23.0527 21.5448 23.0527Z" fill="#534741"/>
<path d="M19.228 28.9726L21.6781 32.0458H23.3815L20.6864 28.8961C21.3864 28.5898 21.9114 28.1414 22.2614 27.5618C22.2848 27.5181 22.3081 27.4634 22.3431 27.4196H23.8598V26.2823H22.6931C22.7281 26.0307 22.7281 25.801 22.7164 25.6042H23.8598V24.4668H19.298V25.6042H21.5031C21.5264 25.7901 21.5264 26.0307 21.4797 26.2823H19.3097V27.4196H20.8614C20.5697 27.6931 20.1497 27.9227 19.5664 28.0758L19.228 28.9726Z" fill="#534741"/>
<path d="M29.6083 16.407C29.5733 16.407 29.5383 16.407 29.4916 16.396C26.4466 15.7617 20.8231 16.396 20.7648 16.407C20.4498 16.4398 20.1581 16.1992 20.1231 15.8602C20.0881 15.5211 20.3214 15.2149 20.6365 15.1821C20.8698 15.1602 26.4932 14.5259 29.7133 15.193C30.0283 15.2587 30.2383 15.5867 30.1683 15.9148C30.1217 16.1992 29.8883 16.407 29.6083 16.407Z" fill="#FF931E"/>
<path d="M24.5593 14.9043C24.466 14.9043 24.361 14.9152 24.2676 14.9152C24.0926 15.1777 23.8593 15.6042 23.731 16.1729C23.8126 16.1729 23.8943 16.162 23.976 16.162C24.1276 15.5386 24.396 15.1121 24.5593 14.9043Z" fill="#BF6E17"/>
<path d="M22.9047 14.9727C22.8113 14.9836 22.7063 14.9836 22.613 14.9945C22.438 15.2789 22.228 15.7054 22.1113 16.2632C22.193 16.2522 22.2747 16.2522 22.3563 16.2413C22.4847 15.6507 22.7297 15.2133 22.9047 14.9727Z" fill="#BF6E17"/>
<path d="M23.7351 14.9336C23.6418 14.9336 23.5368 14.9445 23.4435 14.9445C23.2685 15.2179 23.0468 15.6445 22.9185 16.2132C23.0001 16.2132 23.0818 16.2022 23.1635 16.2022C23.3151 15.5898 23.5718 15.1523 23.7351 14.9336Z" fill="#BF6E17"/>
<path d="M22.0684 15.0332C21.9634 15.0441 21.87 15.0441 21.7767 15.0551C21.6017 15.3504 21.4033 15.7769 21.2983 16.3346C21.3683 16.3237 21.45 16.3237 21.5433 16.3128C21.66 15.7331 21.8934 15.2957 22.0684 15.0332Z" fill="#BF6E17"/>
<path d="M20.9229 15.1402C20.7595 15.4355 20.5845 15.8402 20.4912 16.3542C20.5612 16.387 20.6429 16.3979 20.7245 16.3979C20.8296 15.8292 21.0396 15.3918 21.2146 15.1074C21.1096 15.1184 21.0046 15.1293 20.9229 15.1402Z" fill="#BF6E17"/>
<path d="M29.2185 15.0875C29.1369 15.0766 29.0552 15.0656 28.9735 15.0547C28.8102 15.3281 28.6235 15.7327 28.5068 16.2358C28.5885 16.2468 28.6585 16.2577 28.7402 16.2686C28.8568 15.7437 29.0552 15.35 29.2185 15.0875Z" fill="#BF6E17"/>
<path d="M29.7183 15.1738H29.7067C29.5433 15.4582 29.38 15.8519 29.2983 16.344C29.3683 16.355 29.4383 16.3659 29.4967 16.3878C29.5083 16.3878 29.52 16.3878 29.52 16.3878C29.6133 15.9175 29.765 15.5347 29.9167 15.2613C29.8584 15.2285 29.7883 15.1957 29.7183 15.1738Z" fill="#BF6E17"/>
<path d="M27.7328 14.9328C27.6395 14.9219 27.5578 14.9219 27.4645 14.9219C27.2895 15.1734 27.0795 15.589 26.9395 16.1358C27.0211 16.1358 27.1028 16.1468 27.1728 16.1468C27.3245 15.5562 27.5695 15.1515 27.7328 14.9328Z" fill="#BF6E17"/>
<path d="M28.4844 14.9848C28.4028 14.9738 28.3094 14.9629 28.2278 14.9629C28.0644 15.2254 27.8544 15.63 27.7261 16.155C27.8077 16.155 27.8894 16.1659 27.9594 16.1768C28.0994 15.63 28.3211 15.2254 28.4844 14.9848Z" fill="#BF6E17"/>
<path d="M26.9544 14.8898C26.861 14.8898 26.7677 14.8789 26.6744 14.8789C26.4994 15.1304 26.2777 15.546 26.1377 16.1038C26.2194 16.1038 26.301 16.1038 26.3827 16.1038C26.546 15.5132 26.8027 15.0976 26.9544 14.8898Z" fill="#BF6E17"/>
<path d="M25.8945 14.8789C25.7195 15.1304 25.4862 15.546 25.3462 16.1147C25.4279 16.1147 25.5095 16.1147 25.5912 16.1147C25.7545 15.5023 26.0345 15.0758 26.1745 14.8789C26.0812 14.8789 25.9879 14.8789 25.8945 14.8789Z" fill="#BF6E17"/>
<path d="M25.3679 14.8789C25.2745 14.8789 25.1812 14.8789 25.0762 14.8789C24.9012 15.1304 24.6678 15.557 24.5278 16.1257C24.6095 16.1257 24.6912 16.1257 24.7728 16.1147C24.9478 15.5023 25.2162 15.0758 25.3679 14.8789Z" fill="#BF6E17"/>
<path opacity="0.8" d="M29.6058 15.8793C29.5708 15.8793 29.5358 15.8793 29.4891 15.8683C26.4441 15.234 20.8206 15.8683 20.7623 15.8793C20.5056 15.9121 20.2723 15.759 20.1673 15.5293C20.1206 15.6277 20.0973 15.7371 20.1089 15.8574C20.1439 16.1964 20.4356 16.437 20.7506 16.4042C20.8089 16.3933 26.4324 15.7699 29.4775 16.3933C29.5125 16.4042 29.5475 16.4042 29.5941 16.4042C29.8625 16.4042 30.1075 16.1964 30.1658 15.9121C30.1892 15.7808 30.1658 15.6496 30.1192 15.5293C30.0375 15.7371 29.8275 15.8793 29.6058 15.8793Z" fill="#B3B3B3"/>
<path d="M29.6083 17.6511C29.5733 17.6511 29.5383 17.6511 29.4916 17.6402C26.4466 17.0059 20.8231 17.6402 20.7648 17.6511C20.4498 17.6839 20.1581 17.4433 20.1231 17.1043C20.0881 16.7653 20.3214 16.4591 20.6365 16.4262C20.8698 16.4044 26.4932 15.7701 29.7133 16.4372C30.0283 16.5028 30.2383 16.8309 30.1683 17.159C30.1217 17.4433 29.8883 17.6511 29.6083 17.6511Z" fill="#FF931E"/>
<path d="M24.5593 16.1484C24.466 16.1484 24.361 16.1594 24.2676 16.1594C24.0926 16.4218 23.8593 16.8484 23.731 17.4171C23.8126 17.4171 23.8943 17.4061 23.976 17.4061C24.1276 16.7828 24.396 16.3562 24.5593 16.1484Z" fill="#BF6E17"/>
<path d="M22.9047 16.2168C22.8113 16.2277 22.7063 16.2277 22.613 16.2387C22.438 16.523 22.228 16.9495 22.1113 17.5073C22.193 17.4964 22.2747 17.4964 22.3563 17.4854C22.4847 16.8949 22.7297 16.4574 22.9047 16.2168Z" fill="#BF6E17"/>
<path d="M23.7351 16.1777C23.6418 16.1777 23.5368 16.1887 23.4435 16.1887C23.2685 16.4621 23.0468 16.8886 22.9185 17.4573C23.0001 17.4573 23.0818 17.4464 23.1635 17.4464C23.3151 16.8339 23.5718 16.3965 23.7351 16.1777Z" fill="#BF6E17"/>
<path d="M22.0684 16.2871C21.9634 16.298 21.87 16.298 21.7767 16.309C21.6017 16.6043 21.4033 17.0308 21.2983 17.5885C21.3683 17.5776 21.45 17.5776 21.5433 17.5667C21.66 16.9761 21.8934 16.5496 22.0684 16.2871Z" fill="#BF6E17"/>
<path d="M20.9229 16.3844C20.7595 16.6797 20.5845 17.0843 20.4912 17.5983C20.5612 17.6311 20.6429 17.6421 20.7245 17.6421C20.8296 17.0734 21.0396 16.6359 21.2146 16.3516C21.1096 16.3625 21.0046 16.3734 20.9229 16.3844Z" fill="#BF6E17"/>
<path d="M29.2185 16.3316C29.1369 16.3207 29.0552 16.3098 28.9735 16.2988C28.8102 16.5722 28.6235 16.9769 28.5068 17.48C28.5885 17.4909 28.6585 17.5018 28.7402 17.5128C28.8568 16.9878 29.0552 16.5941 29.2185 16.3316Z" fill="#BF6E17"/>
<path d="M29.7183 16.418H29.7067C29.5433 16.7023 29.38 17.096 29.2983 17.5882C29.3683 17.5991 29.4383 17.61 29.4967 17.6319C29.5083 17.6319 29.52 17.6319 29.52 17.6319C29.6133 17.1616 29.765 16.7789 29.9167 16.5055C29.8584 16.4726 29.7883 16.4398 29.7183 16.418Z" fill="#BF6E17"/>
<path d="M27.7328 16.177C27.6395 16.166 27.5578 16.166 27.4645 16.166C27.2895 16.4176 27.0795 16.8331 26.9395 17.38C27.0211 17.38 27.1028 17.3909 27.1728 17.3909C27.3245 16.8003 27.5695 16.3957 27.7328 16.177Z" fill="#BF6E17"/>
<path d="M28.4844 16.2387C28.4028 16.2277 28.3094 16.2168 28.2278 16.2168C28.0644 16.4793 27.8544 16.8839 27.7261 17.4089C27.8077 17.4089 27.8894 17.4198 27.9594 17.4307C28.0994 16.873 28.3211 16.4683 28.4844 16.2387Z" fill="#BF6E17"/>
<path d="M26.9544 16.134C26.861 16.134 26.7677 16.123 26.6744 16.123C26.4994 16.3746 26.2777 16.7902 26.1377 17.3479C26.2194 17.3479 26.301 17.3479 26.3827 17.3479C26.546 16.7574 26.8027 16.3418 26.9544 16.134Z" fill="#BF6E17"/>
<path d="M25.8945 16.123C25.7195 16.3746 25.4862 16.7902 25.3462 17.3589C25.4279 17.3589 25.5095 17.3589 25.5912 17.3589C25.7545 16.7464 26.0345 16.3199 26.1745 16.123C26.0812 16.123 25.9879 16.123 25.8945 16.123Z" fill="#BF6E17"/>
<path d="M25.3679 16.123C25.2745 16.123 25.1812 16.123 25.0762 16.123C24.9012 16.3746 24.6678 16.8011 24.5278 17.3698C24.6095 17.3698 24.6912 17.3698 24.7728 17.3589C24.9478 16.7464 25.2162 16.3199 25.3679 16.123Z" fill="#BF6E17"/>
<path opacity="0.8" d="M29.6058 17.1175C29.5708 17.1175 29.5358 17.1175 29.4891 17.1066C26.4441 16.4723 20.8206 17.1066 20.7623 17.1175C20.5056 17.1504 20.2723 16.9972 20.1673 16.7676C20.1206 16.866 20.0973 16.9754 20.1089 17.0957C20.1439 17.4347 20.4356 17.6753 20.7506 17.6425C20.8089 17.6316 26.4324 17.0082 29.4775 17.6316C29.5125 17.6425 29.5475 17.6425 29.5941 17.6425C29.8625 17.6425 30.1075 17.4347 30.1658 17.1504C30.1892 17.0191 30.1658 16.8879 30.1192 16.7676C30.0375 16.9754 29.8275 17.1175 29.6058 17.1175Z" fill="#B3B3B3"/>
</g>
<defs>
<filter id="filter0_d_3913_52691" x="1" y="5" width="47.9062" height="55.9082" filterUnits="userSpaceOnUse" color-interpolation-filters="sRGB">
<feFlood flood-opacity="0" result="BackgroundImageFix"/>
<feColorMatrix in="SourceAlpha" type="matrix" values="0 0 0 0 0 0 0 0 0 0 0 0 0 0 0 0 0 0 127 0" result="hardAlpha"/>
<feOffset dy="8"/>
<feGaussianBlur stdDeviation="5"/>
<feComposite in2="hardAlpha" operator="out"/>
<feColorMatrix type="matrix" values="0 0 0 0 0 0 0 0 0 0 0 0 0 0 0 0 0 0 0.25 0"/>
<feBlend mode="normal" in2="BackgroundImageFix" result="effect1_dropShadow_3913_52691"/>
<feBlend mode="normal" in="SourceGraphic" in2="effect1_dropShadow_3913_52691" result="shape"/>
</filter>
</defs>
</svg>
