<svg width="55" height="66" viewBox="0 0 55 66" fill="none" xmlns="http://www.w3.org/2000/svg">
<g filter="url(#filter0_d_3913_52694)">
<path d="M39.8698 33.3602C39.8698 33.3602 39.8698 33.3602 39.8751 33.3655C39.8803 33.3708 39.8803 33.3708 39.8803 33.3708C39.8856 33.376 39.8962 33.3866 39.912 33.4024C39.9489 33.4393 40.0175 33.4921 40.1124 33.5553C40.2073 33.6134 40.3339 33.6819 40.4868 33.7399C40.6398 33.7979 40.8244 33.8296 41.0353 33.8454C41.2463 33.8665 41.4889 33.8349 41.742 33.7821C41.8053 33.7663 41.8738 33.7505 41.9371 33.7347L41.9846 33.7241H41.9899H41.9951C41.9688 33.7347 41.9899 33.7241 41.9846 33.7294L42.0004 33.7241L42.0268 33.7136C42.0637 33.703 42.1059 33.6872 42.1428 33.6766C42.2061 33.6503 42.2588 33.6345 42.3274 33.6081C42.3907 33.5817 42.454 33.5501 42.5172 33.5237C42.7598 33.3971 42.9761 33.2336 43.129 33.0332C43.2028 32.933 43.2609 32.8276 43.2925 32.7221C43.3294 32.6166 43.3347 32.5059 43.3241 32.4215C43.3189 32.3793 43.3083 32.3476 43.2978 32.3318C43.2925 32.3265 43.2925 32.316 43.2925 32.3213H43.2978H43.303C43.3505 32.3476 43.3136 32.3265 43.3241 32.3318H43.3189L43.3136 32.3266L43.282 32.3107C43.2767 32.3107 43.303 32.3213 43.303 32.316C43.2978 32.316 43.2978 32.3107 43.2925 32.3107C43.2872 32.3055 43.2714 32.3055 43.2556 32.3002C43.2239 32.2949 43.1765 32.3002 43.129 32.316C43.0288 32.3424 42.9181 32.4004 42.8231 32.4742C42.7282 32.5533 42.6491 32.643 42.5911 32.7485C42.5331 32.8539 42.4962 32.9647 42.4803 33.0754C42.4751 33.1018 42.4751 33.1334 42.4698 33.1598C42.4698 33.1756 42.4698 33.1915 42.4698 33.202V33.2231V33.2284V33.2336C42.4698 33.2284 42.4698 33.2547 42.4698 33.2178V33.2336C42.4751 33.2706 42.4751 33.3233 42.4803 33.3286C42.4803 33.3391 42.4803 33.3444 42.4856 33.3549L42.4962 33.3919C42.5436 33.587 42.7018 33.7663 42.8864 33.9034C43.071 34.0405 43.2767 34.1302 43.4613 34.1882C43.6458 34.2462 43.8199 34.2726 43.9517 34.2779C44.0203 34.2831 44.0783 34.2726 44.131 34.2831C44.2523 34.3095 44.4316 34.3939 44.4158 34.5415C44.3947 34.7261 44.0994 34.7736 43.9623 34.7841C43.783 34.7947 43.5615 34.7841 43.3241 34.7367C43.0815 34.6839 42.8126 34.5996 42.5383 34.4413C42.4012 34.3622 42.2641 34.262 42.1375 34.1302C42.011 33.9983 41.8897 33.8349 41.8106 33.6397L41.7842 33.5659C41.7736 33.5395 41.7684 33.5079 41.7578 33.4762C41.742 33.4077 41.7367 33.3813 41.7262 33.3391L41.7209 33.3233L41.7156 33.2864L41.7104 33.2495C41.7104 33.2231 41.7051 33.1967 41.7051 33.1704C41.7051 33.1176 41.6998 33.0649 41.7051 33.0121C41.7156 32.8012 41.7631 32.585 41.858 32.3793C41.9477 32.1789 42.0795 31.989 42.243 31.8308C42.4065 31.6726 42.6016 31.5355 42.8389 31.4458C42.9602 31.4036 43.0868 31.3667 43.2345 31.3614C43.3083 31.3562 43.3874 31.3614 43.4665 31.372C43.5087 31.3773 43.5509 31.3878 43.5878 31.3984C43.63 31.4089 43.6933 31.4353 43.7302 31.4511L43.7619 31.4669L43.7671 31.4722H43.7724C43.783 31.4775 43.7513 31.4616 43.7988 31.488L43.8304 31.5091C43.8726 31.5355 43.9095 31.5618 43.9464 31.5935C44.015 31.6515 44.073 31.7201 44.1205 31.7886C44.2154 31.9257 44.2681 32.0629 44.2998 32.2C44.3631 32.4689 44.3578 32.7326 44.2998 32.9752C44.2471 33.2178 44.1469 33.4393 44.0203 33.6397C43.7671 34.0353 43.4191 34.3201 43.071 34.5257C42.9813 34.5732 42.897 34.6259 42.8073 34.6681C42.7229 34.7103 42.6227 34.7525 42.5331 34.7894C42.4962 34.8052 42.4592 34.8211 42.417 34.8316L42.3907 34.8422L42.3749 34.8474L42.3485 34.858L42.2852 34.8791C42.1955 34.9054 42.1112 34.9318 42.0268 34.9582C41.6734 35.0426 41.3306 35.1006 40.9931 35.09C40.6609 35.0847 40.3497 35.032 40.086 34.9476C39.8223 34.8633 39.6008 34.7525 39.4268 34.6417C39.2528 34.531 39.1262 34.4255 39.0418 34.3517C39.0207 34.3306 38.9996 34.3148 38.9838 34.299C38.968 34.2831 38.9469 34.262 38.9311 34.2462C38.91 34.2251 38.8994 34.2093 38.8994 34.2093L39.8698 33.3602Z" fill="#FFA897"/>
<path opacity="0.2" d="M39.8698 33.3602C39.8698 33.3602 39.8698 33.3602 39.8751 33.3655C39.8803 33.3708 39.8803 33.3708 39.8803 33.3708C39.8856 33.376 39.8962 33.3866 39.912 33.4024C39.9489 33.4393 40.0175 33.4921 40.1124 33.5553C40.2073 33.6134 40.3339 33.6819 40.4868 33.7399C40.6398 33.7979 40.8244 33.8296 41.0353 33.8454C41.2463 33.8665 41.4889 33.8349 41.742 33.7821C41.8053 33.7663 41.8738 33.7505 41.9371 33.7347L41.9846 33.7241H41.9899H41.9951C41.9688 33.7347 41.9899 33.7241 41.9846 33.7294L42.0004 33.7241L42.0268 33.7136C42.0637 33.703 42.1059 33.6872 42.1428 33.6766C42.2061 33.6503 42.2588 33.6345 42.3274 33.6081C42.3907 33.5817 42.454 33.5501 42.5172 33.5237C42.7598 33.3971 42.9761 33.2336 43.129 33.0332C43.2028 32.933 43.2609 32.8276 43.2925 32.7221C43.3294 32.6166 43.3347 32.5059 43.3241 32.4215C43.3189 32.3793 43.3083 32.3476 43.2978 32.3318C43.2925 32.3265 43.2925 32.316 43.2925 32.3213H43.2978H43.303C43.3505 32.3476 43.3136 32.3265 43.3241 32.3318H43.3189L43.3136 32.3266L43.282 32.3107C43.2767 32.3107 43.303 32.3213 43.303 32.316C43.2978 32.316 43.2978 32.3107 43.2925 32.3107C43.2872 32.3055 43.2714 32.3055 43.2556 32.3002C43.2239 32.2949 43.1765 32.3002 43.129 32.316C43.0288 32.3424 42.9181 32.4004 42.8231 32.4742C42.7282 32.5533 42.6491 32.643 42.5911 32.7485C42.5331 32.8539 42.4962 32.9647 42.4803 33.0754C42.4751 33.1018 42.4751 33.1334 42.4698 33.1598C42.4698 33.1756 42.4698 33.1915 42.4698 33.202V33.2231V33.2284V33.2336C42.4698 33.2284 42.4698 33.2547 42.4698 33.2178V33.2336C42.4751 33.2706 42.4751 33.3233 42.4803 33.3286C42.4803 33.3391 42.4803 33.3444 42.4856 33.3549L42.4962 33.3919C42.5436 33.587 42.7018 33.7663 42.8864 33.9034C43.071 34.0405 43.2767 34.1302 43.4613 34.1882C43.6458 34.2462 43.8199 34.2726 43.9517 34.2779C44.0203 34.2831 44.0783 34.2726 44.131 34.2831C44.2523 34.3095 44.4316 34.3939 44.4158 34.5415C44.3947 34.7261 44.0994 34.7736 43.9623 34.7841C43.783 34.7947 43.5615 34.7841 43.3241 34.7367C43.0815 34.6839 42.8126 34.5996 42.5383 34.4413C42.4012 34.3622 42.2641 34.262 42.1375 34.1302C42.011 33.9983 41.8897 33.8349 41.8106 33.6397L41.7842 33.5659C41.7736 33.5395 41.7684 33.5079 41.7578 33.4762C41.742 33.4077 41.7367 33.3813 41.7262 33.3391L41.7209 33.3233L41.7156 33.2864L41.7104 33.2495C41.7104 33.2231 41.7051 33.1967 41.7051 33.1704C41.7051 33.1176 41.6998 33.0649 41.7051 33.0121C41.7156 32.8012 41.7631 32.585 41.858 32.3793C41.9477 32.1789 42.0795 31.989 42.243 31.8308C42.4065 31.6726 42.6016 31.5355 42.8389 31.4458C42.9602 31.4036 43.0868 31.3667 43.2345 31.3614C43.3083 31.3562 43.3874 31.3614 43.4665 31.372C43.5087 31.3773 43.5509 31.3878 43.5878 31.3984C43.63 31.4089 43.6933 31.4353 43.7302 31.4511L43.7619 31.4669L43.7671 31.4722H43.7724C43.783 31.4775 43.7513 31.4616 43.7988 31.488L43.8304 31.5091C43.8726 31.5355 43.9095 31.5618 43.9464 31.5935C44.015 31.6515 44.073 31.7201 44.1205 31.7886C44.2154 31.9257 44.2681 32.0629 44.2998 32.2C44.3631 32.4689 44.3578 32.7326 44.2998 32.9752C44.2471 33.2178 44.1469 33.4393 44.0203 33.6397C43.7671 34.0353 43.4191 34.3201 43.071 34.5257C42.9813 34.5732 42.897 34.6259 42.8073 34.6681C42.7229 34.7103 42.6227 34.7525 42.5331 34.7894C42.4962 34.8052 42.4592 34.8211 42.417 34.8316L42.3907 34.8422L42.3749 34.8474L42.3485 34.858L42.2852 34.8791C42.1955 34.9054 42.1112 34.9318 42.0268 34.9582C41.6734 35.0426 41.3306 35.1006 40.9931 35.09C40.6609 35.0847 40.3497 35.032 40.086 34.9476C39.8223 34.8633 39.6008 34.7525 39.4268 34.6417C39.2528 34.531 39.1262 34.4255 39.0418 34.3517C39.0207 34.3306 38.9996 34.3148 38.9838 34.299C38.968 34.2831 38.9469 34.262 38.9311 34.2462C38.91 34.2251 38.8994 34.2093 38.8994 34.2093L39.8698 33.3602Z" fill="#FFA897"/>
<g opacity="0.2">
<path d="M43.3018 32.2998L43.2969 32.2949C43.2921 32.2949 43.2969 32.2998 43.3018 32.2998Z" fill="#FFA897"/>
<path d="M42.3309 33.6069C42.3309 33.6069 42.3889 33.5753 42.5208 33.4803C42.5102 33.4487 42.4997 33.4223 42.4891 33.3907L42.4786 33.3538C42.4786 33.3432 42.4786 33.3379 42.4733 33.3274C42.468 33.3221 42.468 33.2694 42.4628 33.2325V33.2166C42.468 33.2536 42.4628 33.2272 42.4628 33.2325V33.2272V33.2219V33.2008C42.4628 33.185 42.4628 33.1692 42.4628 33.1586C42.468 33.1323 42.468 33.1006 42.4733 33.0743C42.4891 32.9582 42.526 32.8475 42.5841 32.7473C42.6421 32.6471 42.7212 32.5521 42.8161 32.473C42.911 32.3992 43.0218 32.3359 43.122 32.3148C43.1694 32.3043 43.2169 32.299 43.2486 32.299C43.2644 32.299 43.2802 32.3043 43.2855 32.3096C43.2907 32.3096 43.2907 32.3148 43.296 32.3148C43.296 32.3148 43.2907 32.3148 43.2855 32.3096L43.3118 32.3254L43.3171 32.3306H43.3224C43.3277 32.3306 43.3329 32.3359 43.3224 32.3306C43.3171 32.3306 43.3118 32.3254 43.3013 32.3201H43.296C43.2907 32.3201 43.2907 32.3148 43.2907 32.3201C43.2907 32.3201 43.2907 32.3254 43.296 32.3306C43.3013 32.3465 43.3171 32.3781 43.3224 32.4203C43.3329 32.5047 43.3277 32.6154 43.2907 32.7209C43.2802 32.7578 43.2644 32.7947 43.2486 32.8317C43.2486 32.8317 43.5861 32.299 43.1589 32.0195C42.7317 31.74 41.9037 32.8264 42.3309 33.6069Z" fill="#FFA897"/>
</g>
<path opacity="0.2" d="M38.5854 34.221C38.5854 34.221 42.9416 35.318 44.4341 32.5176C44.4341 32.5176 43.585 36.4571 38.5854 34.5322V34.221V34.221Z" fill="#FFA897"/>
<path d="M22.4503 25.4301C22.4503 25.4301 20.5676 23.2626 18.5899 24.1117C16.6122 24.9608 14.7295 22.6034 17.1765 20.9105C19.6235 19.2176 23.2203 20.5993 23.2941 24.5811C23.3363 26.5904 22.4503 25.4301 22.4503 25.4301Z" fill="#EF8A7D"/>
<path opacity="0.2" d="M18.989 20.2242C21.9634 20.0607 22.9285 22.666 22.1005 23.2461C21.2725 23.8262 17.7233 22.8189 17.7233 22.8189C17.7233 22.8189 16.9797 22.9508 16.062 23.0932C16.3099 24.0108 17.4332 24.6068 18.5829 24.111C20.5606 23.2619 22.4433 25.4295 22.4433 25.4295C22.4433 25.4295 23.3293 26.5897 23.2924 24.5804C23.2397 21.5163 21.0932 19.9922 18.989 20.2242Z" fill="#EF8A7D"/>
<path d="M40.2387 34.7555C40.2387 41.2581 34.3795 43.8739 26.8169 43.8739C19.2543 43.8739 12.8413 41.2581 12.8413 34.7555C12.8413 28.2529 18.9747 22.9844 26.5427 22.9844C34.1106 22.9844 40.2387 28.2529 40.2387 34.7555Z" fill="#FFA897"/>
<path opacity="0.2" d="M26.8169 42.861C19.4441 42.861 13.1736 40.377 12.8571 34.2383C12.8466 34.407 12.8413 34.5811 12.8413 34.7551C12.8413 41.2577 19.249 43.8735 26.8169 43.8735C34.3848 43.8735 40.2387 41.2577 40.2387 34.7551C40.2387 34.5864 40.2335 34.4229 40.2282 34.2541C39.9276 40.3823 34.1844 42.861 26.8169 42.861Z" fill="#FFA897"/>
<path opacity="0.2" d="M26.5405 22.9844C26.3242 22.9844 26.1133 22.9896 25.9023 22.9949C33.1697 23.2797 38.9603 28.4375 38.9603 34.7555C38.9603 41.0735 33.4281 43.721 26.1766 43.8687C26.3875 43.8739 26.6038 43.8739 26.8147 43.8739C34.3826 43.8739 40.2366 41.2581 40.2366 34.7555C40.2366 28.2529 34.1031 22.9844 26.5405 22.9844Z" fill="#FFA897"/>
<path d="M16.7821 30.0625H11.5821C10.712 30.0625 10 31.8081 10 33.9598C10 36.1116 10.7067 37.8572 11.5821 37.8572H16.7821C17.6523 37.8572 18.3643 36.1116 18.3643 33.9598C18.3643 31.8081 17.6576 30.0625 16.7821 30.0625Z" fill="#FFA897"/>
<path opacity="0.05" d="M11.3237 37.8005C11.9355 37.4999 12.4049 35.8967 12.4049 33.9559C12.4049 32.0204 11.9355 30.4119 11.3237 30.1113C10.5748 30.4119 10 32.0204 10 33.9559C10 35.8967 10.5748 37.4999 11.3237 37.8005Z" fill="#FFA897"/>
<path opacity="0.2" d="M11.3237 37.8067C11.9355 37.5061 12.4049 35.9029 12.4049 33.9621C12.4049 33.8408 12.4049 33.7195 12.3996 33.6035C12.3416 35.4968 11.8353 36.9998 11.2024 37.1264C10.5748 36.9998 10.0686 35.5074 10.0053 33.6193C10.0053 33.6457 10.0053 33.6668 10.0053 33.6932C10.0053 33.7828 10 33.8725 10 33.9621C10 35.9029 10.5748 37.5061 11.3237 37.8067Z" fill="#FFA897"/>
<path opacity="0.2" d="M10.0059 34.2136C10.0533 32.2781 10.5649 30.7329 11.203 30.6063C11.8464 30.7381 12.358 32.2886 12.4054 34.2294C12.4054 34.1397 12.4107 34.0554 12.4107 33.9657C12.4107 32.0302 11.9413 30.4217 11.3296 30.1211C10.5807 30.4217 10.0059 32.0302 10.0059 33.9657C10.0059 34.0395 10.0059 34.1186 10.0111 34.1925C10.0059 34.1977 10.0059 34.2083 10.0059 34.2136Z" fill="#FFA897"/>
<path d="M19.205 30.0589C19.205 30.4544 19.2419 30.9502 18.8095 31.0768C18.5458 31.1559 17.7494 31.351 17.5069 31.2033C17.2643 31.0504 17.2432 30.3068 17.2432 30.0589C17.2432 29.1202 17.6809 28.3555 18.2241 28.3555C18.7673 28.3555 19.205 29.1202 19.205 30.0589Z" fill="#353535"/>
<path d="M20.3621 33.6341C21.2447 33.6341 21.9601 33.2705 21.9601 32.8219C21.9601 32.3734 21.2447 32.0098 20.3621 32.0098C19.4796 32.0098 18.7642 32.3734 18.7642 32.8219C18.7642 33.2705 19.4796 33.6341 20.3621 33.6341Z" fill="#FC9090"/>
<path d="M18.2224 29.4059C18.2224 29.6221 18.0484 29.7961 17.8322 29.7961C17.6159 29.7961 17.4419 29.6221 17.4419 29.4059C17.4419 29.1897 17.6159 29.0156 17.8322 29.0156C18.0484 29.0156 18.2224 29.1897 18.2224 29.4059Z" fill="#F7E7E7"/>
<path d="M19.0774 27.2829C19.0774 27.2829 18.1809 26.5973 17.8011 26.7978C17.4161 26.9929 17.7906 25.7957 19.1143 26.1122C20.4275 26.4233 19.7155 27.6732 19.0774 27.2829Z" fill="#E57D77"/>
<path d="M24.0293 46.6461H18.7502L17.7271 40.8027L25.5323 41.6571L24.0293 46.6461Z" fill="#FFA897"/>
<path d="M21.3937 47.6552C22.8501 47.6552 24.0306 47.2042 24.0306 46.6479C24.0306 46.0916 22.8501 45.6406 21.3937 45.6406C19.9374 45.6406 18.7568 46.0916 18.7568 46.6479C18.7568 47.2042 19.9374 47.6552 21.3937 47.6552Z" fill="#FFA897"/>
<path d="M34.684 46.6528H29.4049L28.4873 41.6638L36.4613 40.5352L34.684 46.6528Z" fill="#FFA897"/>
<path d="M32.05 47.6611C33.5063 47.6611 34.6869 47.2101 34.6869 46.6538C34.6869 46.0975 33.5063 45.6465 32.05 45.6465C30.5937 45.6465 29.4131 46.0975 29.4131 46.6538C29.4131 47.2101 30.5937 47.6611 32.05 47.6611Z" fill="#FFA897"/>
<path opacity="0.5" d="M37.4185 30.6142C36.8647 30.8357 35.9946 28.7209 34.1698 27.4236C32.113 25.9627 30.3463 26.4057 30.3516 25.5988C30.3568 24.5441 32.8408 24.8763 35.0453 26.4374C36.928 27.7769 38.5629 30.1554 37.4185 30.6142Z" fill="#FFA897"/>
<path opacity="0.5" d="M38.9752 32.314C38.8592 32.8097 38.4056 33.1209 37.9574 33.0154C37.5144 32.9099 37.2507 32.4247 37.3667 31.929C37.4827 31.4332 37.9363 31.1221 38.3846 31.2276C38.8276 31.333 39.0965 31.8235 38.9752 32.314Z" fill="#FFA897"/>
<path opacity="0.3" d="M28.8387 23.1479C28.0898 23.0371 27.3251 22.9844 26.5393 22.9844C20.9122 22.9844 16.0814 25.8955 13.9719 30.0618H11.5775C10.8656 30.0618 10.2644 31.2273 10.064 32.8253C10.064 32.8253 10.6757 30.9109 11.6356 30.6367H14.0826C14.0826 30.6367 13.9297 31.5068 14.3885 32.3348C14.3885 32.3348 14.5151 28.1474 18.7499 25.7637C22.9901 23.3852 26.128 22.958 28.8387 23.1479Z" fill="#FFA897"/>
<path d="M20.5226 26.1294C20.5226 26.1294 18.6398 23.9618 16.6621 24.8109C14.6845 25.66 12.8017 23.3026 15.2488 21.6097C17.6958 19.9168 21.2926 21.2985 21.3664 25.2803C21.4086 27.2896 20.5226 26.1294 20.5226 26.1294Z" fill="#FFA897"/>
<path opacity="0.2" d="M21.1878 40.9521C22.9492 41.3107 24.7054 41.7115 26.5038 41.7115C32.5001 41.7115 37.6948 38.9638 40.242 34.9505C40.1946 38.236 38.6388 40.5143 36.1127 41.9488L34.6835 46.7005C34.6835 47.2595 33.5021 47.7078 32.0465 47.7078C30.591 47.7078 29.4096 47.2543 29.4096 46.7005L28.8823 43.8526C28.2125 43.9001 27.5269 43.9212 26.8255 43.9212C26.1715 43.9212 25.5281 43.9001 24.8953 43.8632L24.0409 46.7058C24.0409 47.2648 22.8596 47.7131 21.404 47.7131C19.9484 47.7131 18.7671 47.2595 18.7671 46.7058L17.9497 42.2916C15.8401 41.3159 14.2316 39.8762 13.43 37.9038H11.5894C11.0568 37.9038 10.5821 37.2498 10.2974 36.2531H13.5988C13.6357 35.4198 13.7517 34.286 14.0998 34.5866C14.2949 34.7553 14.4215 35.7415 14.5375 36C14.527 35.9947 16.2093 39.9342 21.1878 40.9521Z" fill="#FFA897"/>
<path opacity="0.2" d="M10.9725 34.3679C10.9725 33.735 11.041 33.2182 11.1307 33.2182C11.1676 33.2182 11.1992 33.3078 11.2256 33.4555C11.1992 33.1233 11.1465 32.8965 11.0938 32.8965C11.0094 32.8965 10.9355 33.4133 10.9355 34.0462C10.9355 34.4206 10.9619 34.7476 10.9988 34.9585C10.983 34.7845 10.9725 34.5841 10.9725 34.3679Z" fill="#FFA897"/>
<path opacity="0.3" d="M11.2287 33.8329C11.2287 34.4657 11.1602 34.9825 11.0705 34.9825C11.0336 34.9825 11.002 34.8929 10.9756 34.7452C11.002 35.0775 11.0547 35.3042 11.1074 35.3042C11.1918 35.3042 11.2656 34.7874 11.2656 34.1546C11.2656 33.7801 11.2393 33.4531 11.2024 33.2422C11.2182 33.4162 11.2287 33.6166 11.2287 33.8329Z" fill="#FFA897"/>
<path opacity="0.2" d="M11.2625 34.0989C11.2625 34.7634 11.1887 35.3013 11.099 35.3013C11.0094 35.3013 10.9355 34.7634 10.9355 34.0989C10.9355 33.4344 11.0094 32.8965 11.099 32.8965C11.1887 32.8965 11.2625 33.4344 11.2625 34.0989Z" fill="#FFA897"/>
<path opacity="0.2" d="M10.325 34.3679C10.325 33.735 10.3936 33.2182 10.4832 33.2182C10.5201 33.2182 10.5518 33.3078 10.5781 33.4555C10.5518 33.1233 10.499 32.8965 10.4463 32.8965C10.3619 32.8965 10.2881 33.4133 10.2881 34.0462C10.2881 34.4206 10.3145 34.7476 10.3514 34.9585C10.3356 34.7845 10.325 34.5841 10.325 34.3679Z" fill="#FFA897"/>
<path opacity="0.3" d="M10.5818 33.8329C10.5818 34.4657 10.5132 34.9825 10.4235 34.9825C10.3866 34.9825 10.355 34.8929 10.3286 34.7452C10.355 35.0775 10.4077 35.3042 10.4605 35.3042C10.5448 35.3042 10.6187 34.7874 10.6187 34.1546C10.6187 33.7801 10.5923 33.4531 10.5554 33.2422C10.5765 33.4162 10.5818 33.6166 10.5818 33.8329Z" fill="#FFA897"/>
<path opacity="0.2" d="M10.6151 34.0989C10.6151 34.7634 10.5412 35.3013 10.4516 35.3013C10.3619 35.3013 10.2881 34.7634 10.2881 34.0989C10.2881 33.4344 10.3619 32.8965 10.4516 32.8965C10.5465 32.8965 10.6151 33.4344 10.6151 34.0989Z" fill="#FFA897"/>
<path d="M30.6758 24.7345C27.6118 24.0805 24.7639 24.4603 24.7375 24.4655L24.3262 23.9118C24.458 23.8907 27.6539 23.4635 31.1874 24.2124L30.6758 24.7345Z" fill="#EA877A"/>
<path opacity="0.2" d="M24.4824 24.1272L24.7356 24.47C24.7619 24.4647 27.6098 24.0903 30.6739 24.739L30.9956 24.4067C27.9157 23.7844 25.1311 24.0481 24.4824 24.1272Z" fill="#D16B62"/>
<path opacity="0.5" d="M17.1468 21.5938C17.1416 21.7679 16.4665 21.7573 15.9022 22.1001C15.2641 22.4851 15.1797 23.0178 14.9582 22.9228C14.6734 22.7963 15.0531 22.1634 15.7387 21.7468C16.3188 21.3934 17.1574 21.2299 17.1468 21.5938Z" fill="#FFA897"/>
<path opacity="0.2" d="M24.376 45.3636C24.376 45.9226 23.0312 46.3709 21.3646 46.3709C20.1306 46.3709 19.0653 46.123 18.6064 45.7644L18.7594 46.6451C18.7594 47.2041 19.9407 47.6524 21.3963 47.6524C22.8519 47.6524 24.0332 47.1988 24.0332 46.6451L24.7715 44.1875L24.376 45.3636Z" fill="#FFA897"/>
<path opacity="0.2" d="M31.9682 46.3803C30.8132 46.3803 29.8059 46.1799 29.2627 45.874L29.4051 46.6546C29.4051 47.2136 30.5864 47.6619 32.042 47.6619C33.4976 47.6619 34.6789 47.2083 34.6789 46.6546L34.9742 45.6367C34.6156 46.0639 33.4079 46.3803 31.9682 46.3803Z" fill="#FFA897"/>
<path opacity="0.5" d="M25.1226 35.2188L28.0021 39.0686H30.0008L26.8365 35.1238C27.654 34.7336 28.2763 34.1745 28.6877 33.4468C28.7193 33.3887 28.7509 33.3307 28.7773 33.2674H30.5599V31.8382H29.1887C29.2256 31.5271 29.2256 31.237 29.215 30.9839H30.5599V29.5547H25.2122V30.9839H27.7964C27.8175 31.2212 27.8175 31.5218 27.7647 31.8382H25.2069V33.2674H27.0317C26.6836 33.605 26.1984 33.9003 25.5023 34.0954L25.1226 35.2188Z" fill="#9B3E3E"/>
<path d="M24.7671 35.0391L27.6466 38.889H29.6506L26.4863 34.9441C27.3038 34.5539 27.9261 33.9949 28.3375 33.2671C28.3691 33.2091 28.4007 33.151 28.4271 33.0878H30.2097V31.6586H28.8385C28.8754 31.3474 28.8754 31.0573 28.8648 30.8042H30.2097V29.375H24.8567V30.8095H27.4409C27.462 31.0468 27.462 31.3474 27.4093 31.6638H24.8515V33.093H26.6762C26.3281 33.4306 25.8429 33.7259 25.1468 33.921L24.7671 35.0391Z" fill="#E57D77"/>
<path d="M32.5045 17.1114C32.5045 15.023 30.8116 13.3301 28.7232 13.3301C26.6348 13.3301 24.9419 15.023 24.9419 17.1114C24.9419 19.1998 26.6348 20.8927 28.7232 20.8927C30.8116 20.8927 32.5045 19.1998 32.5045 17.1114Z" fill="#F7CF0B"/>
<path d="M32.3632 17.0727C32.3632 15.0265 30.702 13.3652 28.6557 13.3652C26.6095 13.3652 24.9482 15.0265 24.9482 17.0727C24.9482 19.119 26.6095 20.7802 28.6557 20.7802C30.702 20.7802 32.3632 19.119 32.3632 17.0727Z" fill="#F9D606"/>
<path d="M31.7489 17.1156C31.7489 15.4438 30.3935 14.0938 28.727 14.0938C27.0552 14.0938 25.7051 15.4491 25.7051 17.1156C25.7051 18.7822 27.0604 20.1375 28.727 20.1375C30.3935 20.1428 31.7489 18.7874 31.7489 17.1156Z" fill="#FCBF0E"/>
<path opacity="0.3" d="M25.8264 17.1684C25.8264 15.5124 27.1659 14.1729 28.8219 14.1729C29.613 14.1729 30.3302 14.4787 30.8629 14.9797C30.3144 14.4313 29.5602 14.0938 28.727 14.0938C27.0552 14.0938 25.7051 15.4491 25.7051 17.1156C25.7051 18.529 26.6755 19.7209 27.9886 20.0479C26.7387 19.684 25.8264 18.5343 25.8264 17.1684Z" fill="#FCBF0E"/>
<path d="M27.6816 17.4736L28.8682 19.061H29.691L28.3883 17.4367C28.7259 17.2785 28.979 17.0464 29.1478 16.7458C29.1636 16.7194 29.1741 16.6984 29.1847 16.672H29.923V16.0813H29.3587C29.3745 15.9547 29.3745 15.8334 29.3693 15.728H29.923V15.1426H27.7186V15.7332H28.7839C28.7944 15.8334 28.7944 15.9547 28.7733 16.0866H27.7186V16.672H28.4674C28.325 16.8144 28.1246 16.9357 27.8399 17.0148L27.6816 17.4736Z" fill="#FCBF0E"/>
<path d="M27.5361 17.3968L28.7227 18.9843H29.5455L28.2428 17.3599C28.5803 17.2017 28.8335 16.9697 29.0023 16.6691C29.0181 16.6427 29.0286 16.6216 29.0392 16.5952H29.7722V16.0046H29.2079C29.2238 15.878 29.2237 15.7567 29.2185 15.6512H29.7722V15.0605H27.5678V15.6512H28.6331C28.6436 15.7514 28.6436 15.8727 28.6225 16.0046H27.5678V16.5952H28.3167C28.1743 16.7376 27.9739 16.8589 27.6891 16.938L27.5361 17.3968Z" fill="#F9D606"/>
<path d="M29.6876 6.78132C29.6876 4.69289 27.9947 3 25.9063 3C23.8179 3 22.125 4.69289 22.125 6.78132C22.125 8.86975 23.8179 10.5626 25.9063 10.5626C28 10.5574 29.6876 8.86447 29.6876 6.78132Z" fill="#F7CF0B"/>
<path d="M29.5458 6.73874C29.5458 4.6925 27.8846 3.03125 25.8383 3.03125C23.7921 3.03125 22.1309 4.6925 22.1309 6.73874C22.1309 8.78497 23.7921 10.4462 25.8383 10.4462C27.8899 10.4462 29.5458 8.78497 29.5458 6.73874Z" fill="#F9D606"/>
<path d="M28.931 6.78556C28.931 5.11377 27.5756 3.76367 25.9091 3.76367C24.2373 3.76367 22.8872 5.11904 22.8872 6.78556C22.8872 8.45209 24.2426 9.80746 25.9091 9.80746C27.5756 9.80746 28.931 8.45209 28.931 6.78556Z" fill="#FCBF0E"/>
<path opacity="0.3" d="M23.0085 6.8383C23.0085 5.18233 24.3481 3.84278 26.004 3.84278C26.7951 3.84278 27.5123 4.14866 28.045 4.64967C27.4965 4.1012 26.7424 3.76367 25.9091 3.76367C24.2373 3.76367 22.8872 5.11904 22.8872 6.78556C22.8872 8.19894 23.8576 9.39082 25.1708 9.7178C23.9261 9.35391 23.0085 8.20422 23.0085 6.8383Z" fill="#FCBF0E"/>
<path d="M24.8643 7.13239L26.0509 8.71981H26.8736L25.5709 7.09547C25.9085 6.93726 26.1616 6.70521 26.3304 6.4046C26.3462 6.37823 26.3567 6.35714 26.3673 6.33077H27.1004V5.7401H26.5361C26.5519 5.61353 26.5519 5.49224 26.5466 5.38676H27.1004V4.80664H24.8959V5.39203H25.9612C25.9718 5.49224 25.9718 5.61353 25.9507 5.74538H24.8959V6.33604H25.6448C25.5024 6.47844 25.302 6.59974 25.0172 6.67884L24.8643 7.13239Z" fill="#FCBF0E"/>
<path d="M24.7188 7.05817L25.9054 8.64559H26.7281L25.4254 7.02125C25.763 6.86304 26.0161 6.63099 26.1849 6.33039C26.2007 6.30402 26.2112 6.28292 26.2218 6.25655H26.9548V5.66589H26.3958C26.4116 5.53931 26.4116 5.41802 26.4064 5.31254H26.9601V4.73242H24.7557V5.32309H25.821C25.8315 5.42329 25.8315 5.54459 25.8104 5.67643H24.7557V6.2671H25.5045C25.3622 6.40949 25.1617 6.53079 24.877 6.6099L24.7188 7.05817Z" fill="#F9D606"/>
</g>
<defs>
<filter id="filter0_d_3913_52694" x="0" y="1" width="54.4341" height="64.7129" filterUnits="userSpaceOnUse" color-interpolation-filters="sRGB">
<feFlood flood-opacity="0" result="BackgroundImageFix"/>
<feColorMatrix in="SourceAlpha" type="matrix" values="0 0 0 0 0 0 0 0 0 0 0 0 0 0 0 0 0 0 127 0" result="hardAlpha"/>
<feOffset dy="8"/>
<feGaussianBlur stdDeviation="5"/>
<feComposite in2="hardAlpha" operator="out"/>
<feColorMatrix type="matrix" values="0 0 0 0 0 0 0 0 0 0 0 0 0 0 0 0 0 0 0.25 0"/>
<feBlend mode="normal" in2="BackgroundImageFix" result="effect1_dropShadow_3913_52694"/>
<feBlend mode="normal" in="SourceGraphic" in2="effect1_dropShadow_3913_52694" result="shape"/>
</filter>
</defs>
</svg>
