<svg width="20" height="21" viewBox="0 0 20 21" fill="none" xmlns="http://www.w3.org/2000/svg">
<g clip-path="url(#clip0_8598_36099)">
<path d="M19.6691 10.5026C19.6691 16.0466 15.0057 20.4983 9.38641 20.1503C4.57174 19.8519 0.653077 15.9333 0.355077 11.1186C0.00674391 5.49927 4.45841 0.835938 10.0024 0.835938C11.5251 0.835938 12.9667 1.18727 14.2491 1.81627C14.5927 1.98494 14.7187 2.41294 14.5291 2.7456L14.5277 2.74794C14.3524 3.05527 13.9697 3.1696 13.6524 3.01327C12.3797 2.3866 10.9247 2.0816 9.38908 2.19127C5.35574 2.47894 2.06174 5.71394 1.70274 9.7416C1.25608 14.7546 5.27341 18.9623 10.2237 18.8329C14.4631 18.7223 18.0017 15.3603 18.3121 11.1309C18.3927 10.0323 18.2604 8.9686 17.9457 7.98794C17.8461 7.67694 17.9911 7.34127 18.2831 7.19527C18.6477 7.01294 19.0947 7.19527 19.2184 7.5836C19.5111 8.50394 19.6691 9.4846 19.6691 10.5026Z" fill="#F82E2E"/>
<path d="M19.3028 4.08684C18.1462 4.72018 17.0098 5.39351 15.9498 6.18684C14.1432 7.51351 12.4802 9.03018 10.9535 10.6735C11.2202 11.0535 11.5102 11.4135 11.8202 11.7568C11.9168 11.8768 12.1302 12.1002 12.2468 12.2002C12.8135 12.7935 13.4902 13.2602 14.1735 13.7068C14.6568 13.9768 14.8202 14.6035 14.5168 15.0702C14.2335 15.5035 13.6568 15.6302 13.2168 15.3635C12.2768 14.8068 11.3902 14.1535 10.6105 13.3835C10.2505 13.0135 9.90716 12.6268 9.58716 12.2235C9.34716 12.5135 9.11049 12.8035 8.87716 13.0968C8.46716 13.6168 8.05716 14.1668 7.70716 14.6835C6.82049 15.8935 5.03083 14.6135 5.90716 13.3835C6.69716 12.3835 7.53049 11.4202 8.41016 10.5002C7.61349 9.14684 7.03016 7.66685 6.69016 6.12685C6.45016 4.67685 8.55683 4.30684 8.82016 5.75684C9.05016 6.86685 9.42683 7.95685 9.93683 8.98351C11.5268 7.48685 13.2398 6.12684 15.0732 4.92018C16.2298 4.14684 17.4695 3.50018 18.7262 2.90018C19.0528 2.74351 19.4495 2.88351 19.6062 3.21018C19.7628 3.53684 19.6228 3.92684 19.3028 4.08684Z" fill="#F82E2E"/>
</g>
<defs>
<clipPath id="clip0_8598_36099">
<rect width="20" height="20" fill="white" transform="translate(0 0.5)"/>
</clipPath>
</defs>
</svg>
