<svg width="20" height="21" viewBox="0 0 20 21" fill="none" xmlns="http://www.w3.org/2000/svg">
<g clip-path="url(#clip0_8598_36047)">
<path d="M19.4294 3.23702C19.1352 2.94229 18.6578 2.94178 18.3636 3.23577L9.32087 12.2546L6.05829 8.71112C5.77638 8.4051 5.29974 8.38526 4.99321 8.66713C4.68692 8.94905 4.66731 9.42592 4.94923 9.73221L8.74321 13.8526C8.88216 14.0036 9.07661 14.0913 9.28165 14.0955C9.28716 14.0958 9.29247 14.0958 9.29774 14.0958C9.497 14.0958 9.68868 14.0166 9.82989 13.8759L19.4279 4.30307C19.7229 4.00913 19.7234 3.53174 19.4294 3.23702Z" fill="#00FF57"/>
<path d="M19.2462 9.74621C18.8299 9.74621 18.4925 10.0836 18.4925 10.5C18.4925 15.1829 14.6829 18.9925 10 18.9925C5.31734 18.9925 1.50754 15.1829 1.50754 10.5C1.50754 5.81734 5.31734 2.00754 10 2.00754C10.4163 2.00754 10.7538 1.67012 10.7538 1.25379C10.7538 0.837422 10.4163 0.5 10 0.5C4.48594 0.5 0 4.98594 0 10.5C0 16.0138 4.48594 20.5 10 20.5C15.5138 20.5 20 16.0138 20 10.5C20 10.0837 19.6626 9.74621 19.2462 9.74621Z" fill="#00FF57"/>
</g>
<defs>
<clipPath id="clip0_8598_36047">
<rect width="20" height="20" fill="white" transform="translate(0 0.5)"/>
</clipPath>
</defs>
</svg>
