<svg width="29" height="28" viewBox="0 0 29 28" fill="none" xmlns="http://www.w3.org/2000/svg">
<path fill-rule="evenodd" clip-rule="evenodd" d="M14.332 28C22.064 28 28.332 21.732 28.332 14C28.332 6.26801 22.064 0 14.332 0C6.60005 0 0.332031 6.26801 0.332031 14C0.332031 16.5109 0.993028 18.8674 2.15051 20.905L0.332031 28L7.64689 26.3038C9.63341 27.3854 11.911 28 14.332 28ZM14.332 25.8462C20.8745 25.8462 26.1782 20.5425 26.1782 14C26.1782 7.45755 20.8745 2.15385 14.332 2.15385C7.78958 2.15385 2.48588 7.45755 2.48588 14C2.48588 16.5261 3.27653 18.8675 4.62387 20.7902L3.5628 24.7692L7.61196 23.7569C9.52139 25.0746 11.8366 25.8462 14.332 25.8462Z" fill="white"/>
<path d="M10.8321 7.50135C10.4992 6.83277 9.98856 6.89196 9.47271 6.89196C8.55079 6.89196 7.11328 7.99625 7.11328 10.0514C7.11328 11.7357 7.85548 13.5795 10.3564 16.3376C12.7701 18.9993 15.9414 20.3763 18.5742 20.3294C21.207 20.2825 21.7487 18.0169 21.7487 17.2518C21.7487 16.9127 21.5383 16.7435 21.3933 16.6975C20.4961 16.2669 18.8414 15.4646 18.4649 15.3139C18.0883 15.1631 17.8918 15.367 17.7695 15.4779C17.4281 15.8033 16.7513 16.7622 16.5195 16.9779C16.2878 17.1936 15.9423 17.0845 15.7985 17.0029C15.2695 16.7906 13.835 16.1525 12.6915 15.0441C11.2774 13.6732 11.1944 13.2016 10.9279 12.7818C10.7148 12.4459 10.8712 12.2398 10.9492 12.1498C11.2539 11.7982 11.6746 11.2555 11.8633 10.9857C12.052 10.716 11.9022 10.3065 11.8123 10.0514C11.4258 8.95448 11.0983 8.03621 10.8321 7.50135Z" fill="white"/>
</svg>
