<svg width="50" height="57" viewBox="0 0 50 57" fill="none" xmlns="http://www.w3.org/2000/svg">
<g filter="url(#filter0_d_3913_54509)">
<path d="M38.9987 35.067V38.5075H28.1855V36.05L30.1516 34.084L32.6091 36.5415L34.0836 35.067L35.5581 36.5415L38.0157 34.084L38.9987 35.067Z" fill="#00A5AB"/>
<path d="M38.9987 27.6953V35.0679L38.0157 34.0849L35.5581 36.5424L34.0836 35.0679L32.6091 36.5424L30.1516 34.0849L28.1855 36.0509V33.5934L31.1346 30.6443L33.5921 33.1019L38.9987 27.6953Z" fill="#FF5A21"/>
<path d="M30.6431 34.5755V38.5075H28.1855V36.05L30.1516 34.084L30.6431 34.5755Z" fill="#007D93"/>
<path d="M32.3633 31.8713L30.6431 33.5916V34.5746L30.1516 34.0831L28.1855 36.0491V33.5916L31.1346 30.6426L32.3633 31.8713Z" fill="#FC3C1D"/>
<path d="M38.9991 27.6953V30.1528L36.0501 33.1019L34.8213 31.8731L38.9991 27.6953Z" fill="#FC3C1D"/>
<path d="M16.3896 28.6758H18.3557V36.5399H16.3896V28.6758Z" fill="#00A5AB"/>
<path d="M12.458 31.625H14.424V36.5401H12.458V31.625Z" fill="#FFD648"/>
<path d="M20.3218 26.7109H22.2878V36.541H20.3218V26.7109Z" fill="#FF5A21"/>
<path d="M16.3896 28.6758H17.3727V36.5399H16.3896V28.6758Z" fill="#007D93"/>
<path d="M12.458 31.625H13.441V36.5401H12.458V31.625Z" fill="#FFB300"/>
<path d="M20.3218 26.7109H21.3048V36.541H20.3218V26.7109Z" fill="#FC3C1D"/>
<path d="M24.7245 12.9699C25.3799 13.9901 25.7284 15.177 25.7284 16.3896H19.3389V10C20.4136 10.0038 21.4701 10.2778 22.4112 10.7968C23.3523 11.3158 24.1478 12.0631 24.7245 12.9699Z" fill="#FF5A21"/>
<path d="M21.6292 23.105C21.0322 23.7743 20.3008 24.3103 19.4827 24.6778C18.6646 25.0454 17.7782 25.2363 16.8813 25.2381C13.3762 25.2381 10.4917 22.3536 10.4917 18.8486C10.4917 15.3435 13.3762 12.459 16.8813 12.459V18.8486H23.2708C23.269 20.4216 22.6841 21.9381 21.6292 23.105Z" fill="#FFD648"/>
<path d="M21.7964 10.4977V16.3896H19.3389V10C20.1831 9.99938 21.0189 10.1686 21.7964 10.4977Z" fill="#FC3C1D"/>
<path d="M18.1113 25.1177C17.7062 25.198 17.2942 25.2384 16.8813 25.2381C13.3762 25.2381 10.4917 22.3536 10.4917 18.8486C10.4917 15.3435 13.3762 12.459 16.8813 12.459V12.9566C14.581 13.9274 12.9492 16.2122 12.9492 18.8486C12.9492 21.934 15.185 24.539 18.1113 25.1177Z" fill="#FFB300"/>
<path d="M23.618 14.7731L22.9229 14.078L25.3804 11.6205C25.426 11.5749 25.4802 11.5387 25.5398 11.514C25.5995 11.4893 25.6634 11.4766 25.7279 11.4766H29.66V12.4596H25.9315L23.618 14.7731Z" fill="#00A5AB"/>
<path d="M29.6606 24.2536H22.288C22.2234 24.2536 22.1595 24.2409 22.0999 24.2162C22.0403 24.1915 21.9861 24.1553 21.9404 24.1097L19.4829 21.6521L20.178 20.957L22.4915 23.2706H29.6606V24.2536Z" fill="#00A5AB"/>
<path d="M24.7452 38.9998H10.4915C10.3611 38.9998 10.2361 38.9481 10.144 38.8559C10.0518 38.7637 10 38.6387 10 38.5083V26.2207H10.983V38.0168H24.7452V38.9998Z" fill="#00A5AB"/>
<path d="M30.6436 11.4766H34.5756V12.4596H30.6436V11.4766Z" fill="#FF5A21"/>
<path d="M30.6436 13.4414H34.5756V14.4244H30.6436V13.4414Z" fill="#FF5A21"/>
<path d="M30.6436 15.4062H34.5756V16.3893H30.6436V15.4062Z" fill="#FF5A21"/>
<path d="M35.5581 13.4414H39.4901V14.4244H35.5581V13.4414Z" fill="#FF5A21"/>
<path d="M35.5581 15.4062H39.4901V16.3893H35.5581V15.4062Z" fill="#FF5A21"/>
<path d="M30.6426 23.2695H34.5746V24.2525H30.6426V23.2695Z" fill="#FFD648"/>
<path d="M35.5571 23.2695H39.4892V24.2525H35.5571V23.2695Z" fill="#FFD648"/>
<path d="M30.6426 21.3066H34.5746V22.2897H30.6426V21.3066Z" fill="#FFD648"/>
<path d="M35.5571 21.3066H39.4892V22.2897H35.5571V21.3066Z" fill="#FFD648"/>
<path d="M30.6426 19.3398H34.5746V20.3229H30.6426V19.3398Z" fill="#FFD648"/>
<path d="M35.5571 19.3398H39.4892V20.3229H35.5571V19.3398Z" fill="#FFD648"/>
<path d="M39.4902 38.9998H26.2195C26.0892 38.9998 25.9642 38.9481 25.872 38.8559C25.7798 38.7637 25.728 38.6387 25.728 38.5083V26.2207H26.711V38.0168H39.4902V38.9998Z" fill="#00A5AB"/>
</g>
<defs>
<filter id="filter0_d_3913_54509" x="0" y="8" width="49.4902" height="49" filterUnits="userSpaceOnUse" color-interpolation-filters="sRGB">
<feFlood flood-opacity="0" result="BackgroundImageFix"/>
<feColorMatrix in="SourceAlpha" type="matrix" values="0 0 0 0 0 0 0 0 0 0 0 0 0 0 0 0 0 0 127 0" result="hardAlpha"/>
<feOffset dy="8"/>
<feGaussianBlur stdDeviation="5"/>
<feComposite in2="hardAlpha" operator="out"/>
<feColorMatrix type="matrix" values="0 0 0 0 0 0 0 0 0 0 0 0 0 0 0 0 0 0 0.25 0"/>
<feBlend mode="normal" in2="BackgroundImageFix" result="effect1_dropShadow_3913_54509"/>
<feBlend mode="normal" in="SourceGraphic" in2="effect1_dropShadow_3913_54509" result="shape"/>
</filter>
</defs>
</svg>
