<svg width="52" height="60" viewBox="0 0 52 60" fill="none" xmlns="http://www.w3.org/2000/svg">
<g filter="url(#filter0_d_3913_52695)">
<path d="M21.5762 21.5762C24.0755 19.0769 24.0755 15.0247 21.5762 12.5254C19.0769 10.0261 15.0247 10.0261 12.5254 12.5254C10.0261 15.0247 10.0261 19.0769 12.5254 21.5762C15.0247 24.0755 19.0769 24.0755 21.5762 21.5762Z" fill="#60B7FF"/>
<path d="M17.0523 22.6564C20.1482 22.6564 22.6578 20.1467 22.6578 17.0508C22.6578 13.955 20.1482 11.4453 17.0523 11.4453C13.9565 11.4453 11.4468 13.955 11.4468 17.0508C11.4468 20.1467 13.9565 22.6564 17.0523 22.6564Z" fill="#8AC9FE"/>
<path fill-rule="evenodd" clip-rule="evenodd" d="M17.0518 17.0508H23.4526C23.4526 19.4198 22.1655 21.488 20.2526 22.5948L17.0518 17.0508Z" fill="#FD4755"/>
<path fill-rule="evenodd" clip-rule="evenodd" d="M17.0518 17.0508H22.6573C22.6573 19.1254 21.5302 20.9367 19.855 21.906L17.0518 17.0508Z" fill="#FE646F"/>
<path fill-rule="evenodd" clip-rule="evenodd" d="M23.4526 17.0512H17.0518V10.6504C20.5868 10.6504 23.4526 13.5161 23.4526 17.0512Z" fill="#FFD064"/>
<path fill-rule="evenodd" clip-rule="evenodd" d="M22.6573 17.0508H17.0518V11.4453C20.1476 11.4453 22.6573 13.955 22.6573 17.0508Z" fill="#FFE177"/>
<path fill-rule="evenodd" clip-rule="evenodd" d="M31.5305 13.5128C31.2602 13.5128 31.041 13.2936 31.041 13.0233C31.041 12.753 31.2602 12.5338 31.5305 12.5338H36.2654C36.5357 12.5338 36.7549 12.753 36.7549 13.0233C36.7549 13.2936 36.5357 13.5128 36.2654 13.5128H31.5305ZM31.5305 11.4634C31.2602 11.4634 31.041 11.2442 31.041 10.9739C31.041 10.7035 31.2602 10.4844 31.5305 10.4844H41.0002C41.2706 10.4844 41.4897 10.7035 41.4897 10.9739C41.4897 11.2442 41.2706 11.4634 41.0002 11.4634H31.5305Z" fill="#A79BA7"/>
<path fill-rule="evenodd" clip-rule="evenodd" d="M27.1727 10.4844H28.8235C29.2029 10.4844 29.5123 10.7938 29.5123 11.1732V12.824C29.5123 13.2034 29.2029 13.5128 28.8235 13.5128H27.1727C26.7933 13.5128 26.4839 13.2034 26.4839 12.824V11.1732C26.4839 10.7938 26.7933 10.4844 27.1727 10.4844Z" fill="#8AC9FE"/>
<path fill-rule="evenodd" clip-rule="evenodd" d="M31.5305 18.5695C31.2602 18.5695 31.041 18.3503 31.041 18.08C31.041 17.8097 31.2602 17.5905 31.5305 17.5905H36.2654C36.5357 17.5905 36.7549 17.8097 36.7549 18.08C36.7549 18.3503 36.5357 18.5695 36.2654 18.5695H31.5305ZM31.5305 16.52C31.2602 16.52 31.041 16.3008 31.041 16.0305C31.041 15.7602 31.2602 15.541 31.5305 15.541H41.0002C41.2706 15.541 41.4897 15.7602 41.4897 16.0305C41.4897 16.3008 41.2706 16.52 41.0002 16.52H31.5305Z" fill="#A79BA7"/>
<path fill-rule="evenodd" clip-rule="evenodd" d="M27.1727 15.541H28.8235C29.2029 15.541 29.5123 15.8504 29.5123 16.2298V17.8807C29.5123 18.26 29.2029 18.5694 28.8235 18.5694H27.1727C26.7933 18.5694 26.4839 18.26 26.4839 17.8807V16.2298C26.4839 15.8504 26.7933 15.541 27.1727 15.541Z" fill="#FFE177"/>
<path fill-rule="evenodd" clip-rule="evenodd" d="M31.5305 23.6261C31.2602 23.6261 31.041 23.407 31.041 23.1366C31.041 22.8663 31.2602 22.6471 31.5305 22.6471H36.2654C36.5357 22.6471 36.7549 22.8663 36.7549 23.1366C36.7549 23.407 36.5357 23.6261 36.2654 23.6261H31.5305ZM31.5305 21.5767C31.2602 21.5767 31.041 21.3575 31.041 21.0872C31.041 20.8168 31.2602 20.5977 31.5305 20.5977H41.0002C41.2706 20.5977 41.4897 20.8168 41.4897 21.0872C41.4897 21.3575 41.2706 21.5767 41.0002 21.5767H31.5305Z" fill="#A79BA7"/>
<path fill-rule="evenodd" clip-rule="evenodd" d="M27.1727 20.5977H28.8235C29.2029 20.5977 29.5123 20.9071 29.5123 21.2864V22.9373C29.5123 23.3167 29.2029 23.6261 28.8235 23.6261H27.1727C26.7933 23.6261 26.4839 23.3167 26.4839 22.9373V21.2864C26.4839 20.9071 26.7933 20.5977 27.1727 20.5977Z" fill="#FE646F"/>
<path fill-rule="evenodd" clip-rule="evenodd" d="M22.8287 31.4746H24.8613C25.1983 31.4746 25.4731 31.7495 25.4731 32.0865V40.3867C25.4731 40.7237 25.1983 40.9985 24.8613 40.9985C24.1837 40.9985 23.5062 40.9985 22.8287 40.9985C22.4917 40.9985 22.2168 40.7237 22.2168 40.3867C22.2168 37.6199 22.2168 34.8532 22.2168 32.0865C22.2167 31.7495 22.4917 31.4746 22.8287 31.4746Z" fill="#FFE177"/>
<path fill-rule="evenodd" clip-rule="evenodd" d="M24.8608 31.4746C25.1978 31.4746 25.4727 31.7495 25.4727 32.0865V40.3867C25.4727 40.7237 25.1978 40.9985 24.8608 40.9985C24.1833 40.9985 23.5057 40.9985 22.8282 40.9985C22.4912 40.9985 22.2163 40.7237 22.2163 40.3867V40.3866H24.2489C24.5859 40.3866 24.8608 40.1118 24.8608 39.7747V31.4746Z" fill="#FFD064"/>
<path fill-rule="evenodd" clip-rule="evenodd" d="M28.7383 31.4746H30.7709C31.108 31.4746 31.3828 31.7495 31.3828 32.0865V40.3867C31.3828 40.7237 31.108 40.9985 30.7709 40.9985C30.0934 40.9985 29.4159 40.9985 28.7383 40.9985C28.4013 40.9985 28.1265 40.7237 28.1265 40.3867C28.1265 37.6199 28.1265 34.8532 28.1265 32.0865C28.1265 31.7495 28.4014 31.4746 28.7383 31.4746Z" fill="#FE646F"/>
<path fill-rule="evenodd" clip-rule="evenodd" d="M30.7709 31.4746C31.108 31.4746 31.3828 31.7495 31.3828 32.0865V40.3867C31.3828 40.7237 31.108 40.9985 30.7709 40.9985C30.0934 40.9985 29.4159 40.9985 28.7383 40.9985C28.4013 40.9985 28.1265 40.7237 28.1265 40.3867V40.3866H30.1591C30.4961 40.3866 30.7709 40.1118 30.7709 39.7747V31.4746Z" fill="#FD4755"/>
<path fill-rule="evenodd" clip-rule="evenodd" d="M11.2632 29.8262H13.2958C13.6329 29.8262 13.9077 30.101 13.9077 30.438V40.3902C13.9077 40.7273 13.6329 41.0021 13.2958 41.0021C12.6183 41.0021 11.9408 41.0021 11.2632 41.0021C10.9262 41.0021 10.6514 40.7273 10.6514 40.3902C10.6514 37.0728 10.6514 33.7554 10.6514 30.438C10.6514 30.101 10.9262 29.8262 11.2632 29.8262Z" fill="#6CF5C2"/>
<path fill-rule="evenodd" clip-rule="evenodd" d="M13.2958 29.8262C13.6329 29.8262 13.9077 30.101 13.9077 30.438V40.3902C13.9077 40.7273 13.6329 41.0021 13.2958 41.0021C12.6183 41.0021 11.9408 41.0021 11.2632 41.0021C10.9262 41.0021 10.6514 40.7273 10.6514 40.3902V40.3902H12.684C13.021 40.3902 13.2958 40.1153 13.2958 39.7783V29.8262Z" fill="#00E499"/>
<path fill-rule="evenodd" clip-rule="evenodd" d="M16.919 26.9668H18.9516C19.2886 26.9668 19.5635 27.2417 19.5635 27.5787V40.3886C19.5635 40.7256 19.2886 41.0005 18.9516 41.0005C18.2741 41.0005 17.5965 41.0005 16.919 41.0005C16.582 41.0005 16.3071 40.7256 16.3071 40.3886C16.3071 36.1186 16.3071 31.8486 16.3071 27.5787C16.3071 27.2417 16.582 26.9668 16.919 26.9668Z" fill="#8AC9FE"/>
<path fill-rule="evenodd" clip-rule="evenodd" d="M18.9516 26.9668C19.2886 26.9668 19.5635 27.2417 19.5635 27.5787V40.3886C19.5635 40.7256 19.2886 41.0005 18.9516 41.0005C18.2741 41.0005 17.5965 41.0005 16.919 41.0005C16.582 41.0005 16.3071 40.7256 16.3071 40.3886V40.3885H18.3397C18.6767 40.3885 18.9516 40.1137 18.9516 39.7766V26.9668Z" fill="#60B7FF"/>
<path fill-rule="evenodd" clip-rule="evenodd" d="M34.0682 31.8711C33.7623 32.3074 33.4025 32.7031 32.9985 33.0487L35.907 35.8996L37.0142 34.7585L34.0682 31.8711Z" fill="#A79BA7"/>
<path fill-rule="evenodd" clip-rule="evenodd" d="M34.0876 31.8516C34.0304 32.0392 33.9238 32.1817 33.771 32.2761L36.6602 35.1463L37.014 34.7586L34.0876 31.8516Z" fill="#837683"/>
<path fill-rule="evenodd" clip-rule="evenodd" d="M39.5896 39.602L40.8392 38.3142C41.0586 38.088 41.0531 37.7235 40.827 37.504L37.3659 34.1455C37.1398 33.926 36.7751 33.9315 36.5557 34.1576L35.3061 35.4454C35.0867 35.6715 35.0921 36.0362 35.3183 36.2556L38.7794 39.6141C39.0056 39.8336 39.3701 39.8282 39.5896 39.602Z" fill="#F1BA84"/>
<path fill-rule="evenodd" clip-rule="evenodd" d="M36.8544 34.1455L40.3154 37.5041C40.5416 37.7235 40.5471 38.088 40.3277 38.3142L39.078 39.602C39.0319 39.6496 38.9792 39.6874 38.9229 39.7155C39.1402 39.8234 39.4126 39.785 39.5901 39.602L40.8398 38.3142C41.0592 38.088 41.0537 37.7235 40.8275 37.504L37.3664 34.1455C37.1879 33.9722 36.9231 33.9391 36.7114 34.0442C36.7628 34.0698 36.8111 34.1035 36.8544 34.1455Z" fill="#E3A76F"/>
<path d="M33.797 33.1551C36.2579 30.6942 36.2579 26.7042 33.797 24.2433C31.336 21.7823 27.3461 21.7823 24.8851 24.2433C22.4242 26.7042 22.4242 30.6942 24.8851 33.1551C27.3461 35.6161 31.336 35.6161 33.797 33.1551Z" fill="#ECEFF1"/>
<path fill-rule="evenodd" clip-rule="evenodd" d="M29.3455 22.3945C32.8263 22.3945 35.6481 25.2163 35.6481 28.6971C35.6481 32.1779 32.8263 34.9997 29.3455 34.9997C29.2429 34.9997 29.1409 34.9971 29.0396 34.9922C32.3782 34.8326 35.0362 32.0753 35.0362 28.6971C35.0362 25.3189 32.3783 22.5616 29.0396 22.4021C29.1409 22.3972 29.2429 22.3945 29.3455 22.3945Z" fill="#D1D1D6"/>
<path d="M29.3449 33.2875C31.8794 33.2875 33.934 31.2329 33.934 28.6985C33.934 26.164 31.8794 24.1094 29.3449 24.1094C26.8105 24.1094 24.7559 26.164 24.7559 28.6985C24.7559 31.2329 26.8105 33.2875 29.3449 33.2875Z" fill="#837683"/>
<path fill-rule="evenodd" clip-rule="evenodd" d="M33.1187 28.6985C33.1187 29.6373 32.8368 30.5102 32.3531 31.2372C32.1664 31.5178 31.9497 31.7767 31.7075 32.0092C30.9747 32.7127 30.009 33.1753 28.9375 33.2697C29.0719 33.2815 29.2079 33.2875 29.3454 33.2875C29.5684 33.2875 29.7877 33.2716 30.0022 33.2409C30.0298 33.2369 30.0574 33.2327 30.085 33.2283C32.2678 32.8746 33.9345 30.9812 33.9345 28.6985C33.9345 26.1639 31.8799 24.1094 29.3454 24.1094C29.2079 24.1094 29.0719 24.1154 28.9375 24.1272C31.281 24.3338 33.1187 26.3015 33.1187 28.6985Z" fill="#685E68"/>
<path fill-rule="evenodd" clip-rule="evenodd" d="M29.3452 29.1406C27.6921 29.1406 26.3311 30.3932 26.1587 32.0005C26.9841 32.7971 28.1074 33.2871 29.3451 33.2871C29.5681 33.2871 29.7874 33.2712 30.0018 33.2405C30.9778 33.1006 31.8546 32.6535 32.5313 32.0004C32.3593 30.3928 30.9985 29.1406 29.3452 29.1406Z" fill="#8AC9FE"/>
<path fill-rule="evenodd" clip-rule="evenodd" d="M28.9375 29.1663C30.8451 29.4087 31.6139 30.8522 31.7906 32.5819C32.0574 32.4136 32.3056 32.2185 32.5315 32.0004C32.3595 30.3927 30.9987 29.1406 29.3453 29.1406C29.2072 29.1406 29.0711 29.1494 28.9375 29.1663Z" fill="#60B7FF"/>
<path d="M29.3449 28.8988C30.2398 28.8988 30.9652 28.1734 30.9652 27.2785C30.9652 26.3836 30.2398 25.6582 29.3449 25.6582C28.45 25.6582 27.7246 26.3836 27.7246 27.2785C27.7246 28.1734 28.45 28.8988 29.3449 28.8988Z" fill="#F6DCCD"/>
<path fill-rule="evenodd" clip-rule="evenodd" d="M30.5569 27.2785C30.5569 28.1043 29.9392 28.7858 29.1406 28.8861C29.2074 28.8945 29.2755 28.8988 29.3446 28.8988C30.2394 28.8988 30.9649 28.1734 30.9649 27.2785C30.9649 26.3836 30.2394 25.6582 29.3446 25.6582C29.2755 25.6582 29.2074 25.6625 29.1406 25.6709C29.9392 25.7713 30.5569 26.4527 30.5569 27.2785Z" fill="#F1CBBC"/>
</g>
<defs>
<filter id="filter0_d_3913_52695" x="0.650879" y="8.48438" width="50.8389" height="50.5176" filterUnits="userSpaceOnUse" color-interpolation-filters="sRGB">
<feFlood flood-opacity="0" result="BackgroundImageFix"/>
<feColorMatrix in="SourceAlpha" type="matrix" values="0 0 0 0 0 0 0 0 0 0 0 0 0 0 0 0 0 0 127 0" result="hardAlpha"/>
<feOffset dy="8"/>
<feGaussianBlur stdDeviation="5"/>
<feComposite in2="hardAlpha" operator="out"/>
<feColorMatrix type="matrix" values="0 0 0 0 0 0 0 0 0 0 0 0 0 0 0 0 0 0 0.25 0"/>
<feBlend mode="normal" in2="BackgroundImageFix" result="effect1_dropShadow_3913_52695"/>
<feBlend mode="normal" in="SourceGraphic" in2="effect1_dropShadow_3913_52695" result="shape"/>
</filter>
</defs>
</svg>
