<svg width="50" height="54" viewBox="0 0 50 54" fill="none" xmlns="http://www.w3.org/2000/svg">
<g filter="url(#filter0_d_3913_54587)">
<path d="M25.5018 9L26.8912 11.634L30 12.0561L27.7509 14.106L28.2805 17L25.5018 15.6323L22.7195 17L23.2491 14.106L21 12.0561L24.1088 11.634L25.5018 9Z" fill="#FFCB52"/>
</g>
<g filter="url(#filter1_d_3913_54587)">
<path d="M39.4207 15L39.7336 17.4245L42 18.5472L39.6875 19.588L39.2692 22L37.5266 20.217L35 20.5849L36.2353 18.4434L35.0955 16.2579L37.6024 16.717L39.4207 15Z" fill="#FFCB52"/>
</g>
<g filter="url(#filter2_d_3913_54587)">
<path d="M11.5805 15L11.2674 17.4245L9 18.5472L11.3136 19.588L11.7321 22L13.4755 20.217L16 20.5849L14.7641 18.4434L15.9044 16.2579L13.403 16.717L11.5805 15Z" fill="#FFCB52"/>
</g>
<g filter="url(#filter3_d_3913_54587)">
<path d="M33.5726 41.7622H17.7437C17.543 41.7622 17.3818 41.601 17.3818 41.4004V18.9497C17.3818 18.7491 17.543 18.5879 17.7437 18.5879H33.9345V41.4004C33.9345 41.601 33.77 41.7622 33.5726 41.7622Z" fill="#EAF6FF"/>
<path d="M18.4442 18.5879V41.7622H17.7403C17.5396 41.7622 17.3784 41.601 17.3784 41.4004V18.9497C17.3784 18.7491 17.5396 18.5879 17.7403 18.5879H18.4442Z" fill="#D8ECFE"/>
<path d="M21.5067 35.114C21.9573 35.114 22.3225 34.7488 22.3225 34.2982C22.3225 33.8477 21.9573 33.4824 21.5067 33.4824C21.0562 33.4824 20.6909 33.8477 20.6909 34.2982C20.6909 34.7488 21.0562 35.114 21.5067 35.114Z" fill="#AEE69C"/>
<path d="M21.5067 38.4304C21.9573 38.4304 22.3225 38.0652 22.3225 37.6146C22.3225 37.1641 21.9573 36.7988 21.5067 36.7988C21.0562 36.7988 20.6909 37.1641 20.6909 37.6146C20.6909 38.0652 21.0562 38.4304 21.5067 38.4304Z" fill="#AEE69C"/>
<path d="M30.1612 29.7855V31.7986H21.0493V29.7855C21.0493 29.2855 21.3651 28.8414 21.8388 28.6802L23.5164 28.1078L24.3618 27.8184H26.8487L27.6941 28.1078L29.3717 28.6802C29.8421 28.8414 30.1612 29.2888 30.1612 29.7855Z" fill="#8AC9FE"/>
<path d="M25.9605 27.8184L23.4375 28.6802C22.9638 28.8414 22.648 29.2855 22.648 29.7855V31.7986H21.0493V29.7855C21.0493 29.2855 21.3684 28.8414 21.8388 28.6802L24.3618 27.8184H25.9605Z" fill="#60B7FF"/>
<path d="M27.6944 28.1078C27.2371 28.667 26.543 29.0223 25.77 29.0223H25.4444C24.668 29.0223 23.974 28.6638 23.52 28.1078L24.3654 27.8184H26.849L27.6944 28.1078Z" fill="#60B7FF"/>
<path d="M23.4736 23.9496V26.5352C23.4736 27.624 24.3552 28.5055 25.444 28.5055H25.7697C26.8585 28.5055 27.7401 27.624 27.7401 26.5352V23.9496C27.7401 23.6174 27.4703 23.3477 27.1381 23.3477H24.0822C23.7434 23.3477 23.4736 23.6174 23.4736 23.9496Z" fill="#FFCEBF"/>
<path d="M26.1385 28.4719C26.02 28.495 25.895 28.5081 25.7668 28.5081H25.4411C24.3523 28.5081 23.4707 27.6265 23.4707 26.541V23.9555C23.4707 23.6233 23.7404 23.3535 24.0727 23.3535H25.1385C24.8062 23.3535 24.5365 23.6233 24.5365 23.9555V26.541C24.5398 27.4983 25.2273 28.2976 26.1385 28.4719Z" fill="#FFB09E"/>
<path d="M23.4736 24.6248H24.3289C24.6546 24.6248 24.9671 24.4899 25.1907 24.2531L25.7763 23.6347L26.1546 24.2958C26.2697 24.4998 26.4868 24.6215 26.7203 24.6215H27.7401V23.2926C27.7401 22.4866 27.0855 21.832 26.2796 21.832H24.9407C24.1348 21.832 23.4802 22.4866 23.4802 23.2926L23.4736 24.6248Z" fill="#68748F"/>
<path d="M24.9342 21.834H25.9999C25.194 21.834 24.5394 22.4886 24.5394 23.2945V24.607C24.4703 24.6202 24.4013 24.6267 24.3289 24.6267H23.4736V23.2978C23.4736 22.4853 24.1282 21.834 24.9342 21.834Z" fill="#5D6980"/>
<path d="M27.3126 33.8839H24.0001C23.7797 33.8839 23.6021 33.7063 23.6021 33.4859C23.6021 33.2655 23.7797 33.0879 24.0001 33.0879H27.3093C27.5297 33.0879 27.7073 33.2655 27.7073 33.4859C27.7106 33.7063 27.533 33.8839 27.3126 33.8839Z" fill="#68748F"/>
<path d="M30.6218 35.5382H24.0001C23.7797 35.5382 23.6021 35.3606 23.6021 35.1402C23.6021 34.9198 23.7797 34.7422 24.0001 34.7422H30.6218C30.8422 34.7422 31.0198 34.9198 31.0198 35.1402C31.0231 35.3606 30.8422 35.5382 30.6218 35.5382Z" fill="#68748F"/>
<path d="M27.3121 37.1984H23.9996C23.7792 37.1984 23.6016 37.0208 23.6016 36.8004C23.6016 36.58 23.7792 36.4023 23.9996 36.4023H27.3088C27.5292 36.4023 27.7068 36.58 27.7068 36.8004C27.7101 37.0175 27.5325 37.1984 27.3121 37.1984Z" fill="#68748F"/>
<path d="M30.6213 38.8527H23.9996C23.7792 38.8527 23.6016 38.6751 23.6016 38.4547C23.6016 38.2343 23.7792 38.0566 23.9996 38.0566H30.6213C30.8417 38.0566 31.0193 38.2343 31.0193 38.4547C31.0226 38.6751 30.8417 38.8527 30.6213 38.8527Z" fill="#68748F"/>
</g>
<defs>
<filter id="filter0_d_3913_54587" x="13" y="5" width="25" height="24" filterUnits="userSpaceOnUse" color-interpolation-filters="sRGB">
<feFlood flood-opacity="0" result="BackgroundImageFix"/>
<feColorMatrix in="SourceAlpha" type="matrix" values="0 0 0 0 0 0 0 0 0 0 0 0 0 0 0 0 0 0 127 0" result="hardAlpha"/>
<feOffset dy="4"/>
<feGaussianBlur stdDeviation="4"/>
<feComposite in2="hardAlpha" operator="out"/>
<feColorMatrix type="matrix" values="0 0 0 0 0 0 0 0 0 0 0 0 0 0 0 0 0 0 0.25 0"/>
<feBlend mode="normal" in2="BackgroundImageFix" result="effect1_dropShadow_3913_54587"/>
<feBlend mode="normal" in="SourceGraphic" in2="effect1_dropShadow_3913_54587" result="shape"/>
</filter>
<filter id="filter1_d_3913_54587" x="27" y="11" width="23" height="23" filterUnits="userSpaceOnUse" color-interpolation-filters="sRGB">
<feFlood flood-opacity="0" result="BackgroundImageFix"/>
<feColorMatrix in="SourceAlpha" type="matrix" values="0 0 0 0 0 0 0 0 0 0 0 0 0 0 0 0 0 0 127 0" result="hardAlpha"/>
<feOffset dy="4"/>
<feGaussianBlur stdDeviation="4"/>
<feComposite in2="hardAlpha" operator="out"/>
<feColorMatrix type="matrix" values="0 0 0 0 0 0 0 0 0 0 0 0 0 0 0 0 0 0 0.25 0"/>
<feBlend mode="normal" in2="BackgroundImageFix" result="effect1_dropShadow_3913_54587"/>
<feBlend mode="normal" in="SourceGraphic" in2="effect1_dropShadow_3913_54587" result="shape"/>
</filter>
<filter id="filter2_d_3913_54587" x="1" y="11" width="23" height="23" filterUnits="userSpaceOnUse" color-interpolation-filters="sRGB">
<feFlood flood-opacity="0" result="BackgroundImageFix"/>
<feColorMatrix in="SourceAlpha" type="matrix" values="0 0 0 0 0 0 0 0 0 0 0 0 0 0 0 0 0 0 127 0" result="hardAlpha"/>
<feOffset dy="4"/>
<feGaussianBlur stdDeviation="4"/>
<feComposite in2="hardAlpha" operator="out"/>
<feColorMatrix type="matrix" values="0 0 0 0 0 0 0 0 0 0 0 0 0 0 0 0 0 0 0.25 0"/>
<feBlend mode="normal" in2="BackgroundImageFix" result="effect1_dropShadow_3913_54587"/>
<feBlend mode="normal" in="SourceGraphic" in2="effect1_dropShadow_3913_54587" result="shape"/>
</filter>
<filter id="filter3_d_3913_54587" x="9.37842" y="14.5879" width="32.5562" height="39.1738" filterUnits="userSpaceOnUse" color-interpolation-filters="sRGB">
<feFlood flood-opacity="0" result="BackgroundImageFix"/>
<feColorMatrix in="SourceAlpha" type="matrix" values="0 0 0 0 0 0 0 0 0 0 0 0 0 0 0 0 0 0 127 0" result="hardAlpha"/>
<feOffset dy="4"/>
<feGaussianBlur stdDeviation="4"/>
<feComposite in2="hardAlpha" operator="out"/>
<feColorMatrix type="matrix" values="0 0 0 0 0 0 0 0 0 0 0 0 0 0 0 0 0 0 0.25 0"/>
<feBlend mode="normal" in2="BackgroundImageFix" result="effect1_dropShadow_3913_54587"/>
<feBlend mode="normal" in="SourceGraphic" in2="effect1_dropShadow_3913_54587" result="shape"/>
</filter>
</defs>
</svg>
