<svg width="50" height="51" viewBox="0 0 50 51" fill="none" xmlns="http://www.w3.org/2000/svg">
<g filter="url(#filter0_d_3913_54551)">
<path d="M12.9363 19.3929C12.7539 19.3929 12.5836 19.2779 12.5218 19.0955C12.4442 18.8665 12.567 18.618 12.796 18.5404L37.9378 10.0232C38.1668 9.94575 38.4152 10.0684 38.4928 10.2974C38.5704 10.5264 38.4477 10.7748 38.2186 10.8524L13.0768 19.3696C13.0303 19.3854 12.9829 19.3929 12.9363 19.3929Z" fill="#E4EAF8"/>
<path d="M25.5 16.517C24.9444 16.517 24.4282 16.3264 24 16V35H27V16C26.5716 16.3264 26.0555 16.517 25.5 16.517Z" fill="#E4EAF8"/>
<path d="M24.0469 16.6621V35.0011H25.2142V17.1435C24.785 17.0911 24.3872 16.921 24.0469 16.6621Z" fill="#D8DCE5"/>
<path d="M25.4978 17.6151C26.932 17.6151 28.0947 16.3739 28.0947 14.8427C28.0947 13.3116 26.932 12.0703 25.4978 12.0703C24.0636 12.0703 22.9009 13.3116 22.9009 14.8427C22.9009 16.3739 24.0636 17.6151 25.4978 17.6151Z" fill="#D8DCE5"/>
<path d="M24.0681 14.6692C24.0681 13.4358 24.9284 12.4039 26.0815 12.1389C25.8938 12.0958 25.6986 12.0723 25.4979 12.0723C24.0636 12.0723 22.9009 13.235 22.9009 14.6692C22.9009 16.1035 24.0636 17.2662 25.4979 17.2662C25.6986 17.2662 25.8938 17.2427 26.0815 17.1996C24.9284 16.9346 24.0681 15.9027 24.0681 14.6692Z" fill="#C3C8D1"/>
<path d="M27.7657 35H23.2342C21.4554 35 20 35.7513 20 36.6697V37H31V36.6697C31.0001 35.7514 29.5446 35 27.7657 35Z" fill="#966653"/>
<path d="M24 35H22.9258C21.3166 35 20 35.7513 20 36.6697V37H21.0742V36.6697C21.0741 35.7514 22.3908 35 24 35Z" fill="#875746"/>
<path d="M31.2923 39.3383H19.7036C19.3244 39.3383 19.0142 39.0281 19.0142 38.6488V37.5918C19.0142 37.2126 19.3244 36.9023 19.7036 36.9023H31.2923C31.6715 36.9023 31.9818 37.2126 31.9818 37.5918V38.6488C31.9817 39.0281 31.6714 39.3383 31.2923 39.3383Z" fill="#AD7B64"/>
<path d="M31.2813 38.2109H19.7145C19.3448 38.2109 19.0406 37.9205 19.0165 37.5566C19.0155 37.572 19.0142 37.5872 19.0142 37.6027V38.6379C19.0142 39.0232 19.3294 39.3383 19.7145 39.3383H31.2814C31.6666 39.3383 31.9817 39.0231 31.9817 38.6379V37.6027C31.9817 37.5871 31.9804 37.5719 31.9794 37.5566C31.9553 37.9205 31.6509 38.2109 31.2813 38.2109Z" fill="#966653"/>
<path d="M25.498 15.6122C26.0193 15.6122 26.4418 15.1897 26.4418 14.6684C26.4418 14.1472 26.0193 13.7246 25.498 13.7246C24.9768 13.7246 24.5542 14.1472 24.5542 14.6684C24.5542 15.1897 24.9768 15.6122 25.498 15.6122Z" fill="#C3C8D1"/>
<path d="M25.7214 14.6684C25.7214 14.3677 25.8625 14.1005 26.0816 13.9276C25.9209 13.8008 25.7185 13.7246 25.498 13.7246C24.9767 13.7246 24.5542 14.1472 24.5542 14.6684C24.5542 15.1897 24.9767 15.6122 25.498 15.6122C25.7186 15.6122 25.9209 15.536 26.0816 15.4093C25.8626 15.2364 25.7214 14.9691 25.7214 14.6684Z" fill="#B1B5BC"/>
<path d="M39.1242 20.5499C38.9534 20.5499 38.7913 20.4495 38.7207 20.2824L35.2778 12.1335C35.1837 11.9109 35.2879 11.6541 35.5106 11.56C35.7333 11.466 35.9901 11.5701 36.0842 11.7929L39.5271 19.9418C39.6211 20.1644 39.517 20.4212 39.2942 20.5153C39.2388 20.5387 39.181 20.5499 39.1242 20.5499Z" fill="#D8DCE5"/>
<path d="M31.4948 20.55C31.4379 20.55 31.3803 20.5389 31.3246 20.5154C31.1019 20.4213 30.9977 20.1645 31.0917 19.9418L34.5346 11.7929C34.6287 11.5703 34.8854 11.4659 35.1082 11.5601C35.3309 11.6541 35.4351 11.9109 35.3411 12.1336L31.8981 20.2825C31.8276 20.4496 31.6655 20.55 31.4948 20.55Z" fill="#D8DCE5"/>
<path d="M36.5429 23.6602H34.0757C32.1743 23.6602 30.6187 22.1045 30.6187 20.2032V20.129C30.6187 19.9757 30.7429 19.8516 30.8961 19.8516H39.7225C39.8757 19.8516 39.9999 19.9758 39.9999 20.129V20.2032C39.9999 22.1045 38.4442 23.6602 36.5429 23.6602Z" fill="#FFC850"/>
<path d="M35.3095 12.3192C35.8437 12.3192 36.2767 11.8861 36.2767 11.352C36.2767 10.8178 35.8437 10.3848 35.3095 10.3848C34.7753 10.3848 34.3423 10.8178 34.3423 11.352C34.3423 11.8861 34.7753 12.3192 35.3095 12.3192Z" fill="#707487"/>
<path d="M31.7761 20.2032V20.129C31.7761 19.9757 31.9004 19.8516 32.0535 19.8516H30.8961C30.7428 19.8516 30.6187 19.9758 30.6187 20.129V20.2032C30.6187 22.1046 32.1743 23.6602 34.0757 23.6602H35.2332C33.3318 23.6602 31.7761 22.1045 31.7761 20.2032Z" fill="#F9B938"/>
<path d="M35.4998 11.352C35.4998 11.0352 35.6529 10.7549 35.8883 10.5784C35.7268 10.4573 35.5268 10.3848 35.3095 10.3848C34.7753 10.3848 34.3423 10.8178 34.3423 11.352C34.3423 11.8862 34.7753 12.3192 35.3095 12.3192C35.5268 12.3192 35.7268 12.2467 35.8883 12.1257C35.6529 11.9492 35.4998 11.6688 35.4998 11.352Z" fill="#676A77"/>
<path d="M19.5055 27.1827C19.3348 27.1827 19.1727 27.0823 19.102 26.9152L15.6591 18.7663C15.5651 18.5437 15.6693 18.2869 15.892 18.1928C16.1146 18.0988 16.3714 18.203 16.4655 18.4257L19.9084 26.5746C20.0025 26.7972 19.8983 27.054 19.6756 27.1481C19.62 27.1716 19.5623 27.1827 19.5055 27.1827Z" fill="#D8DCE5"/>
<path d="M11.8761 27.1828C11.8193 27.1828 11.7616 27.1717 11.7059 27.1482C11.4833 27.0541 11.379 26.7973 11.4731 26.5746L14.916 18.4257C15.0101 18.2031 15.2667 18.0987 15.4895 18.1929C15.7122 18.2869 15.8164 18.5437 15.7224 18.7664L12.2795 26.9153C12.2089 27.0824 12.0467 27.1828 11.8761 27.1828Z" fill="#D8DCE5"/>
<path d="M16.9243 30.293H14.457C12.5556 30.293 11 28.7373 11 26.836V26.7618C11 26.6085 11.1242 26.4844 11.2774 26.4844H20.1038C20.257 26.4844 20.3812 26.6086 20.3812 26.7618V26.836C20.3813 28.7373 18.8256 30.293 16.9243 30.293Z" fill="#FFC850"/>
<path d="M15.6908 18.952C16.225 18.952 16.658 18.5189 16.658 17.9848C16.658 17.4506 16.225 17.0176 15.6908 17.0176C15.1567 17.0176 14.7236 17.4506 14.7236 17.9848C14.7236 18.5189 15.1567 18.952 15.6908 18.952Z" fill="#707487"/>
<path d="M12.1575 26.836V26.7618C12.1575 26.6085 12.2817 26.4844 12.4349 26.4844H11.2774C11.1242 26.4844 11 26.6086 11 26.7618V26.836C11 28.7374 12.5557 30.293 14.457 30.293H15.6145C13.7131 30.2931 12.1575 28.7374 12.1575 26.836Z" fill="#F9B938"/>
<path d="M15.8812 17.9848C15.8812 17.668 16.0342 17.3877 16.2696 17.2112C16.1082 17.0901 15.9082 17.0176 15.6908 17.0176C15.1567 17.0176 14.7236 17.4506 14.7236 17.9848C14.7236 18.519 15.1567 18.952 15.6908 18.952C15.9082 18.952 16.1081 18.8795 16.2696 18.7585C16.0342 18.582 15.8812 18.3017 15.8812 17.9848Z" fill="#676A77"/>
</g>
<defs>
<filter id="filter0_d_3913_54551" x="1" y="1" width="49" height="49.3379" filterUnits="userSpaceOnUse" color-interpolation-filters="sRGB">
<feFlood flood-opacity="0" result="BackgroundImageFix"/>
<feColorMatrix in="SourceAlpha" type="matrix" values="0 0 0 0 0 0 0 0 0 0 0 0 0 0 0 0 0 0 127 0" result="hardAlpha"/>
<feOffset dy="1"/>
<feGaussianBlur stdDeviation="5"/>
<feComposite in2="hardAlpha" operator="out"/>
<feColorMatrix type="matrix" values="0 0 0 0 0 0 0 0 0 0 0 0 0 0 0 0 0 0 0.25 0"/>
<feBlend mode="normal" in2="BackgroundImageFix" result="effect1_dropShadow_3913_54551"/>
<feBlend mode="normal" in="SourceGraphic" in2="effect1_dropShadow_3913_54551" result="shape"/>
</filter>
</defs>
</svg>
